%TF.GenerationSoftware,KiCad,Pcbnew,10.0.0*%
%TF.CreationDate,2026-04-07T16:29:34+02:00*%
%TF.ProjectId,PCB,5043422e-6b69-4636-9164-5f7063625858,rev?*%
%TF.SameCoordinates,Original*%
%TF.FileFunction,Soldermask,Top*%
%TF.FilePolarity,Negative*%
%FSLAX46Y46*%
G04 Gerber Fmt 4.6, Leading zero omitted, Abs format (unit mm)*
G04 Created by KiCad (PCBNEW 10.0.0) date 2026-04-07 16:29:34*
%MOMM*%
%LPD*%
G01*
G04 APERTURE LIST*
G04 Aperture macros list*
%AMRoundRect*
0 Rectangle with rounded corners*
0 $1 Rounding radius*
0 $2 $3 $4 $5 $6 $7 $8 $9 X,Y pos of 4 corners*
0 Add a 4 corners polygon primitive as box body*
4,1,4,$2,$3,$4,$5,$6,$7,$8,$9,$2,$3,0*
0 Add four circle primitives for the rounded corners*
1,1,$1+$1,$2,$3*
1,1,$1+$1,$4,$5*
1,1,$1+$1,$6,$7*
1,1,$1+$1,$8,$9*
0 Add four rect primitives between the rounded corners*
20,1,$1+$1,$2,$3,$4,$5,0*
20,1,$1+$1,$4,$5,$6,$7,0*
20,1,$1+$1,$6,$7,$8,$9,0*
20,1,$1+$1,$8,$9,$2,$3,0*%
%AMRotRect*
0 Rectangle, with rotation*
0 The origin of the aperture is its center*
0 $1 length*
0 $2 width*
0 $3 Rotation angle, in degrees counterclockwise*
0 Add horizontal line*
21,1,$1,$2,0,0,$3*%
%AMFreePoly0*
4,1,225,0.256581,0.504743,0.258810,0.504000,0.260000,0.504000,0.261581,0.503743,0.263810,0.503000,0.265000,0.503000,0.266581,0.502743,0.269581,0.501743,0.270236,0.501472,0.271920,0.500630,0.274581,0.499743,0.276536,0.498536,0.277964,0.497108,0.279236,0.496472,0.280536,0.495536,0.281964,0.494108,0.283236,0.493472,0.284536,0.492536,0.292536,0.484536,0.293472,0.483236,
0.294108,0.481964,0.295536,0.480536,0.296472,0.479236,0.297108,0.477964,0.298536,0.476536,0.299743,0.474581,0.300630,0.471920,0.301472,0.470236,0.301743,0.469581,0.302743,0.466581,0.303000,0.465000,0.303000,0.463810,0.303743,0.461581,0.304000,0.460000,0.304000,0.458810,0.304743,0.456581,0.305000,0.455000,0.305000,-0.105000,0.304743,-0.106581,0.304000,-0.108810,
0.304000,-0.110000,0.303743,-0.111581,0.303000,-0.113810,0.303000,-0.115000,0.302743,-0.116581,0.301743,-0.119581,0.301472,-0.120236,0.300630,-0.121920,0.299743,-0.124581,0.298536,-0.126536,0.297108,-0.127964,0.296472,-0.129236,0.295536,-0.130536,0.294108,-0.131964,0.293472,-0.133236,0.292536,-0.134536,0.284536,-0.142536,0.283236,-0.143472,0.281964,-0.144108,0.280536,-0.145536,
0.279236,-0.146472,0.277964,-0.147108,0.276536,-0.148536,0.274581,-0.149743,0.271920,-0.150630,0.270236,-0.151472,0.269581,-0.151743,0.266581,-0.152743,0.265000,-0.153000,0.263810,-0.153000,0.261581,-0.153743,0.260000,-0.154000,0.258810,-0.154000,0.256581,-0.154743,0.255000,-0.155000,-0.255000,-0.155000,-0.256581,-0.154743,-0.258810,-0.154000,-0.260000,-0.154000,-0.261581,-0.153743,
-0.263810,-0.153000,-0.265000,-0.153000,-0.266581,-0.152743,-0.269581,-0.151743,-0.270236,-0.151472,-0.271920,-0.150630,-0.274581,-0.149743,-0.276536,-0.148536,-0.277964,-0.147108,-0.279236,-0.146472,-0.280536,-0.145536,-0.281964,-0.144108,-0.283236,-0.143472,-0.284536,-0.142536,-0.292536,-0.134536,-0.293472,-0.133236,-0.294108,-0.131964,-0.295536,-0.130536,-0.296472,-0.129236,-0.297108,-0.127964,
-0.298536,-0.126536,-0.299743,-0.124581,-0.300630,-0.121920,-0.301472,-0.120236,-0.301743,-0.119581,-0.302743,-0.116581,-0.303000,-0.115000,-0.303000,-0.113810,-0.303743,-0.111581,-0.304000,-0.110000,-0.304000,-0.108810,-0.304743,-0.106581,-0.305000,-0.105000,-0.305000,0.105000,-0.304743,0.106581,-0.304000,0.108810,-0.304000,0.110000,-0.303743,0.111581,-0.303000,0.113810,-0.303000,0.115000,
-0.302743,0.116581,-0.301743,0.119581,-0.301472,0.120236,-0.300630,0.121920,-0.299743,0.124581,-0.298536,0.126536,-0.297108,0.127964,-0.296472,0.129236,-0.295536,0.130536,-0.294108,0.131964,-0.293472,0.133236,-0.292536,0.134536,-0.284536,0.142536,-0.283236,0.143472,-0.281964,0.144108,-0.280536,0.145536,-0.279236,0.146472,-0.277964,0.147108,-0.276536,0.148536,-0.274581,0.149743,
-0.271920,0.150630,-0.270236,0.151472,-0.269581,0.151743,-0.266581,0.152743,-0.265000,0.153000,-0.263810,0.153000,-0.261581,0.153743,-0.260000,0.154000,-0.258810,0.154000,-0.256581,0.154743,-0.255000,0.155000,0.004190,0.155000,0.006419,0.155743,0.008000,0.156000,0.009190,0.156000,0.011419,0.156743,0.013000,0.157000,0.014190,0.157000,0.016080,0.157630,0.017764,0.158472,
0.018419,0.158743,0.020297,0.159369,0.021464,0.160536,0.022764,0.161472,0.024036,0.162108,0.025464,0.163536,0.026764,0.164472,0.028036,0.165108,0.034892,0.171964,0.035528,0.173236,0.036464,0.174536,0.037892,0.175964,0.038528,0.177236,0.039464,0.178536,0.040631,0.179703,0.041257,0.181581,0.041528,0.182236,0.042370,0.183920,0.043000,0.185810,0.043000,0.187000,
0.043257,0.188581,0.044000,0.190810,0.044000,0.192000,0.044257,0.193581,0.045000,0.195810,0.045000,0.455000,0.045257,0.456581,0.046000,0.458810,0.046000,0.460000,0.046257,0.461581,0.047000,0.463810,0.047000,0.465000,0.047257,0.466581,0.048257,0.469581,0.048528,0.470236,0.049370,0.471920,0.050257,0.474581,0.051464,0.476536,0.052892,0.477964,0.053528,0.479236,
0.054464,0.480536,0.055892,0.481964,0.056528,0.483236,0.057464,0.484536,0.065464,0.492536,0.066764,0.493472,0.068036,0.494108,0.069464,0.495536,0.070764,0.496472,0.072036,0.497108,0.073464,0.498536,0.075419,0.499743,0.078080,0.500630,0.079764,0.501472,0.080419,0.501743,0.083419,0.502743,0.085000,0.503000,0.086190,0.503000,0.088419,0.503743,0.090000,0.504000,
0.091190,0.504000,0.093419,0.504743,0.095000,0.505000,0.255000,0.505000,0.256581,0.504743,0.256581,0.504743,$1*%
%AMFreePoly1*
4,1,225,0.256581,0.154743,0.258810,0.154000,0.260000,0.154000,0.261581,0.153743,0.263810,0.153000,0.265000,0.153000,0.266581,0.152743,0.269581,0.151743,0.270236,0.151472,0.271920,0.150630,0.274581,0.149743,0.276536,0.148536,0.277964,0.147108,0.279236,0.146472,0.280536,0.145536,0.281964,0.144108,0.283236,0.143472,0.284536,0.142536,0.292536,0.134536,0.293472,0.133236,
0.294108,0.131964,0.295536,0.130536,0.296472,0.129236,0.297108,0.127964,0.298536,0.126536,0.299743,0.124581,0.300630,0.121920,0.301472,0.120236,0.301743,0.119581,0.302743,0.116581,0.303000,0.115000,0.303000,0.113810,0.303743,0.111581,0.304000,0.110000,0.304000,0.108810,0.304743,0.106581,0.305000,0.105000,0.305000,-0.455000,0.304743,-0.456581,0.304000,-0.458810,
0.304000,-0.460000,0.303743,-0.461581,0.303000,-0.463810,0.303000,-0.465000,0.302743,-0.466581,0.301743,-0.469581,0.301472,-0.470236,0.300630,-0.471920,0.299743,-0.474581,0.298536,-0.476536,0.297108,-0.477964,0.296472,-0.479236,0.295536,-0.480536,0.294108,-0.481964,0.293472,-0.483236,0.292536,-0.484536,0.284536,-0.492536,0.283236,-0.493472,0.281964,-0.494108,0.280536,-0.495536,
0.279236,-0.496472,0.277964,-0.497108,0.276536,-0.498536,0.274581,-0.499743,0.271920,-0.500630,0.270236,-0.501472,0.269581,-0.501743,0.266581,-0.502743,0.265000,-0.503000,0.263810,-0.503000,0.261581,-0.503743,0.260000,-0.504000,0.258810,-0.504000,0.256581,-0.504743,0.255000,-0.505000,0.095000,-0.505000,0.093419,-0.504743,0.091190,-0.504000,0.090000,-0.504000,0.088419,-0.503743,
0.086190,-0.503000,0.085000,-0.503000,0.083419,-0.502743,0.080419,-0.501743,0.079764,-0.501472,0.078080,-0.500630,0.075419,-0.499743,0.073464,-0.498536,0.072036,-0.497108,0.070764,-0.496472,0.069464,-0.495536,0.068036,-0.494108,0.066764,-0.493472,0.065464,-0.492536,0.057464,-0.484536,0.056528,-0.483236,0.055892,-0.481964,0.054464,-0.480536,0.053528,-0.479236,0.052892,-0.477964,
0.051464,-0.476536,0.050257,-0.474581,0.049370,-0.471920,0.048528,-0.470236,0.048257,-0.469581,0.047257,-0.466581,0.047000,-0.465000,0.047000,-0.463810,0.046257,-0.461581,0.046000,-0.460000,0.046000,-0.458810,0.045257,-0.456581,0.045000,-0.455000,0.045000,-0.195810,0.044257,-0.193581,0.044000,-0.192000,0.044000,-0.190810,0.043257,-0.188581,0.043000,-0.187000,0.043000,-0.185810,
0.042370,-0.183920,0.041528,-0.182236,0.041257,-0.181581,0.040631,-0.179703,0.039464,-0.178536,0.038528,-0.177236,0.037892,-0.175964,0.036464,-0.174536,0.035528,-0.173236,0.034892,-0.171964,0.028036,-0.165108,0.026764,-0.164472,0.025464,-0.163536,0.024036,-0.162108,0.022764,-0.161472,0.021464,-0.160536,0.020297,-0.159369,0.018419,-0.158743,0.017764,-0.158472,0.016080,-0.157630,
0.014190,-0.157000,0.013000,-0.157000,0.011419,-0.156743,0.009190,-0.156000,0.008000,-0.156000,0.006419,-0.155743,0.004190,-0.155000,-0.255000,-0.155000,-0.256581,-0.154743,-0.258810,-0.154000,-0.260000,-0.154000,-0.261581,-0.153743,-0.263810,-0.153000,-0.265000,-0.153000,-0.266581,-0.152743,-0.269581,-0.151743,-0.270236,-0.151472,-0.271920,-0.150630,-0.274581,-0.149743,-0.276536,-0.148536,
-0.277964,-0.147108,-0.279236,-0.146472,-0.280536,-0.145536,-0.281964,-0.144108,-0.283236,-0.143472,-0.284536,-0.142536,-0.292536,-0.134536,-0.293472,-0.133236,-0.294108,-0.131964,-0.295536,-0.130536,-0.296472,-0.129236,-0.297108,-0.127964,-0.298536,-0.126536,-0.299743,-0.124581,-0.300630,-0.121920,-0.301472,-0.120236,-0.301743,-0.119581,-0.302743,-0.116581,-0.303000,-0.115000,-0.303000,-0.113810,
-0.303743,-0.111581,-0.304000,-0.110000,-0.304000,-0.108810,-0.304743,-0.106581,-0.305000,-0.105000,-0.305000,0.105000,-0.304743,0.106581,-0.304000,0.108810,-0.304000,0.110000,-0.303743,0.111581,-0.303000,0.113810,-0.303000,0.115000,-0.302743,0.116581,-0.301743,0.119581,-0.301472,0.120236,-0.300630,0.121920,-0.299743,0.124581,-0.298536,0.126536,-0.297108,0.127964,-0.296472,0.129236,
-0.295536,0.130536,-0.294108,0.131964,-0.293472,0.133236,-0.292536,0.134536,-0.284536,0.142536,-0.283236,0.143472,-0.281964,0.144108,-0.280536,0.145536,-0.279236,0.146472,-0.277964,0.147108,-0.276536,0.148536,-0.274581,0.149743,-0.271920,0.150630,-0.270236,0.151472,-0.269581,0.151743,-0.266581,0.152743,-0.265000,0.153000,-0.263810,0.153000,-0.261581,0.153743,-0.260000,0.154000,
-0.258810,0.154000,-0.256581,0.154743,-0.255000,0.155000,0.255000,0.155000,0.256581,0.154743,0.256581,0.154743,$1*%
%AMFreePoly2*
4,1,225,0.256581,0.154743,0.258810,0.154000,0.260000,0.154000,0.261581,0.153743,0.263810,0.153000,0.265000,0.153000,0.266581,0.152743,0.269581,0.151743,0.270236,0.151472,0.271920,0.150630,0.274581,0.149743,0.276536,0.148536,0.277964,0.147108,0.279236,0.146472,0.280536,0.145536,0.281964,0.144108,0.283236,0.143472,0.284536,0.142536,0.292536,0.134536,0.293472,0.133236,
0.294108,0.131964,0.295536,0.130536,0.296472,0.129236,0.297108,0.127964,0.298536,0.126536,0.299743,0.124581,0.300630,0.121920,0.301472,0.120236,0.301743,0.119581,0.302743,0.116581,0.303000,0.115000,0.303000,0.113810,0.303743,0.111581,0.304000,0.110000,0.304000,0.108810,0.304743,0.106581,0.305000,0.105000,0.305000,-0.105000,0.304743,-0.106581,0.304000,-0.108810,
0.304000,-0.110000,0.303743,-0.111581,0.303000,-0.113810,0.303000,-0.115000,0.302743,-0.116581,0.301743,-0.119581,0.301472,-0.120236,0.300630,-0.121920,0.299743,-0.124581,0.298536,-0.126536,0.297108,-0.127964,0.296472,-0.129236,0.295536,-0.130536,0.294108,-0.131964,0.293472,-0.133236,0.292536,-0.134536,0.284536,-0.142536,0.283236,-0.143472,0.281964,-0.144108,0.280536,-0.145536,
0.279236,-0.146472,0.277964,-0.147108,0.276536,-0.148536,0.274581,-0.149743,0.271920,-0.150630,0.270236,-0.151472,0.269581,-0.151743,0.266581,-0.152743,0.265000,-0.153000,0.263810,-0.153000,0.261581,-0.153743,0.260000,-0.154000,0.258810,-0.154000,0.256581,-0.154743,0.255000,-0.155000,-0.004190,-0.155000,-0.006419,-0.155743,-0.008000,-0.156000,-0.009190,-0.156000,-0.011419,-0.156743,
-0.013000,-0.157000,-0.014190,-0.157000,-0.016080,-0.157630,-0.017764,-0.158472,-0.018419,-0.158743,-0.020297,-0.159369,-0.021464,-0.160536,-0.022764,-0.161472,-0.024036,-0.162108,-0.025464,-0.163536,-0.026764,-0.164472,-0.028036,-0.165108,-0.034892,-0.171964,-0.035528,-0.173236,-0.036464,-0.174536,-0.037892,-0.175964,-0.038528,-0.177236,-0.039464,-0.178536,-0.040631,-0.179703,-0.041257,-0.181581,
-0.041528,-0.182236,-0.042370,-0.183920,-0.043000,-0.185810,-0.043000,-0.187000,-0.043257,-0.188581,-0.044000,-0.190810,-0.044000,-0.192000,-0.044257,-0.193581,-0.045000,-0.195810,-0.045000,-0.455000,-0.045257,-0.456581,-0.046000,-0.458810,-0.046000,-0.460000,-0.046257,-0.461581,-0.047000,-0.463810,-0.047000,-0.465000,-0.047257,-0.466581,-0.048257,-0.469581,-0.048528,-0.470236,-0.049370,-0.471920,
-0.050257,-0.474581,-0.051464,-0.476536,-0.052892,-0.477964,-0.053528,-0.479236,-0.054464,-0.480536,-0.055892,-0.481964,-0.056528,-0.483236,-0.057464,-0.484536,-0.065464,-0.492536,-0.066764,-0.493472,-0.068036,-0.494108,-0.069464,-0.495536,-0.070764,-0.496472,-0.072036,-0.497108,-0.073464,-0.498536,-0.075419,-0.499743,-0.078080,-0.500630,-0.079764,-0.501472,-0.080419,-0.501743,-0.083419,-0.502743,
-0.085000,-0.503000,-0.086190,-0.503000,-0.088419,-0.503743,-0.090000,-0.504000,-0.091190,-0.504000,-0.093419,-0.504743,-0.095000,-0.505000,-0.255000,-0.505000,-0.256581,-0.504743,-0.258810,-0.504000,-0.260000,-0.504000,-0.261581,-0.503743,-0.263810,-0.503000,-0.265000,-0.503000,-0.266581,-0.502743,-0.269581,-0.501743,-0.270236,-0.501472,-0.271920,-0.500630,-0.274581,-0.499743,-0.276536,-0.498536,
-0.277964,-0.497108,-0.279236,-0.496472,-0.280536,-0.495536,-0.281964,-0.494108,-0.283236,-0.493472,-0.284536,-0.492536,-0.292536,-0.484536,-0.293472,-0.483236,-0.294108,-0.481964,-0.295536,-0.480536,-0.296472,-0.479236,-0.297108,-0.477964,-0.298536,-0.476536,-0.299743,-0.474581,-0.300630,-0.471920,-0.301472,-0.470236,-0.301743,-0.469581,-0.302743,-0.466581,-0.303000,-0.465000,-0.303000,-0.463810,
-0.303743,-0.461581,-0.304000,-0.460000,-0.304000,-0.458810,-0.304743,-0.456581,-0.305000,-0.455000,-0.305000,0.105000,-0.304743,0.106581,-0.304000,0.108810,-0.304000,0.110000,-0.303743,0.111581,-0.303000,0.113810,-0.303000,0.115000,-0.302743,0.116581,-0.301743,0.119581,-0.301472,0.120236,-0.300630,0.121920,-0.299743,0.124581,-0.298536,0.126536,-0.297108,0.127964,-0.296472,0.129236,
-0.295536,0.130536,-0.294108,0.131964,-0.293472,0.133236,-0.292536,0.134536,-0.284536,0.142536,-0.283236,0.143472,-0.281964,0.144108,-0.280536,0.145536,-0.279236,0.146472,-0.277964,0.147108,-0.276536,0.148536,-0.274581,0.149743,-0.271920,0.150630,-0.270236,0.151472,-0.269581,0.151743,-0.266581,0.152743,-0.265000,0.153000,-0.263810,0.153000,-0.261581,0.153743,-0.260000,0.154000,
-0.258810,0.154000,-0.256581,0.154743,-0.255000,0.155000,0.255000,0.155000,0.256581,0.154743,0.256581,0.154743,$1*%
%AMFreePoly3*
4,1,225,-0.093419,0.504743,-0.091190,0.504000,-0.090000,0.504000,-0.088419,0.503743,-0.086190,0.503000,-0.085000,0.503000,-0.083419,0.502743,-0.080419,0.501743,-0.079764,0.501472,-0.078080,0.500630,-0.075419,0.499743,-0.073464,0.498536,-0.072036,0.497108,-0.070764,0.496472,-0.069464,0.495536,-0.068036,0.494108,-0.066764,0.493472,-0.065464,0.492536,-0.057464,0.484536,-0.056528,0.483236,
-0.055892,0.481964,-0.054464,0.480536,-0.053528,0.479236,-0.052892,0.477964,-0.051464,0.476536,-0.050257,0.474581,-0.049370,0.471920,-0.048528,0.470236,-0.048257,0.469581,-0.047257,0.466581,-0.047000,0.465000,-0.047000,0.463810,-0.046257,0.461581,-0.046000,0.460000,-0.046000,0.458810,-0.045257,0.456581,-0.045000,0.455000,-0.045000,0.195810,-0.044257,0.193581,-0.044000,0.192000,
-0.044000,0.190810,-0.043257,0.188581,-0.043000,0.187000,-0.043000,0.185810,-0.042370,0.183920,-0.041528,0.182236,-0.041257,0.181581,-0.040631,0.179703,-0.039464,0.178536,-0.038528,0.177236,-0.037892,0.175964,-0.036464,0.174536,-0.035528,0.173236,-0.034892,0.171964,-0.028036,0.165108,-0.026764,0.164472,-0.025464,0.163536,-0.024036,0.162108,-0.022764,0.161472,-0.021464,0.160536,
-0.020297,0.159369,-0.018419,0.158743,-0.017764,0.158472,-0.016080,0.157630,-0.014190,0.157000,-0.013000,0.157000,-0.011419,0.156743,-0.009190,0.156000,-0.008000,0.156000,-0.006419,0.155743,-0.004190,0.155000,0.255000,0.155000,0.256581,0.154743,0.258810,0.154000,0.260000,0.154000,0.261581,0.153743,0.263810,0.153000,0.265000,0.153000,0.266581,0.152743,0.269581,0.151743,
0.270236,0.151472,0.271920,0.150630,0.274581,0.149743,0.276536,0.148536,0.277964,0.147108,0.279236,0.146472,0.280536,0.145536,0.281964,0.144108,0.283236,0.143472,0.284536,0.142536,0.292536,0.134536,0.293472,0.133236,0.294108,0.131964,0.295536,0.130536,0.296472,0.129236,0.297108,0.127964,0.298536,0.126536,0.299743,0.124581,0.300630,0.121920,0.301472,0.120236,
0.301743,0.119581,0.302743,0.116581,0.303000,0.115000,0.303000,0.113810,0.303743,0.111581,0.304000,0.110000,0.304000,0.108810,0.304743,0.106581,0.305000,0.105000,0.305000,-0.105000,0.304743,-0.106581,0.304000,-0.108810,0.304000,-0.110000,0.303743,-0.111581,0.303000,-0.113810,0.303000,-0.115000,0.302743,-0.116581,0.301743,-0.119581,0.301472,-0.120236,0.300630,-0.121920,
0.299743,-0.124581,0.298536,-0.126536,0.297108,-0.127964,0.296472,-0.129236,0.295536,-0.130536,0.294108,-0.131964,0.293472,-0.133236,0.292536,-0.134536,0.284536,-0.142536,0.283236,-0.143472,0.281964,-0.144108,0.280536,-0.145536,0.279236,-0.146472,0.277964,-0.147108,0.276536,-0.148536,0.274581,-0.149743,0.271920,-0.150630,0.270236,-0.151472,0.269581,-0.151743,0.266581,-0.152743,
0.265000,-0.153000,0.263810,-0.153000,0.261581,-0.153743,0.260000,-0.154000,0.258810,-0.154000,0.256581,-0.154743,0.255000,-0.155000,-0.255000,-0.155000,-0.256581,-0.154743,-0.258810,-0.154000,-0.260000,-0.154000,-0.261581,-0.153743,-0.263810,-0.153000,-0.265000,-0.153000,-0.266581,-0.152743,-0.269581,-0.151743,-0.270236,-0.151472,-0.271920,-0.150630,-0.274581,-0.149743,-0.276536,-0.148536,
-0.277964,-0.147108,-0.279236,-0.146472,-0.280536,-0.145536,-0.281964,-0.144108,-0.283236,-0.143472,-0.284536,-0.142536,-0.292536,-0.134536,-0.293472,-0.133236,-0.294108,-0.131964,-0.295536,-0.130536,-0.296472,-0.129236,-0.297108,-0.127964,-0.298536,-0.126536,-0.299743,-0.124581,-0.300630,-0.121920,-0.301472,-0.120236,-0.301743,-0.119581,-0.302743,-0.116581,-0.303000,-0.115000,-0.303000,-0.113810,
-0.303743,-0.111581,-0.304000,-0.110000,-0.304000,-0.108810,-0.304743,-0.106581,-0.305000,-0.105000,-0.305000,0.455000,-0.304743,0.456581,-0.304000,0.458810,-0.304000,0.460000,-0.303743,0.461581,-0.303000,0.463810,-0.303000,0.465000,-0.302743,0.466581,-0.301743,0.469581,-0.301472,0.470236,-0.300630,0.471920,-0.299743,0.474581,-0.298536,0.476536,-0.297108,0.477964,-0.296472,0.479236,
-0.295536,0.480536,-0.294108,0.481964,-0.293472,0.483236,-0.292536,0.484536,-0.284536,0.492536,-0.283236,0.493472,-0.281964,0.494108,-0.280536,0.495536,-0.279236,0.496472,-0.277964,0.497108,-0.276536,0.498536,-0.274581,0.499743,-0.271920,0.500630,-0.270236,0.501472,-0.269581,0.501743,-0.266581,0.502743,-0.265000,0.503000,-0.263810,0.503000,-0.261581,0.503743,-0.260000,0.504000,
-0.258810,0.504000,-0.256581,0.504743,-0.255000,0.505000,-0.095000,0.505000,-0.093419,0.504743,-0.093419,0.504743,$1*%
G04 Aperture macros list end*
%ADD10C,0.100000*%
%ADD11RoundRect,0.225000X-0.335876X-0.017678X-0.017678X-0.335876X0.335876X0.017678X0.017678X0.335876X0*%
%ADD12R,2.540000X1.270000*%
%ADD13R,1.650000X3.430000*%
%ADD14RoundRect,0.090000X0.015987X-0.751628X0.623287X0.420373X-0.015987X0.751628X-0.623287X-0.420373X0*%
%ADD15RoundRect,0.200000X0.275000X-0.200000X0.275000X0.200000X-0.275000X0.200000X-0.275000X-0.200000X0*%
%ADD16RoundRect,0.090000X-0.391577X-0.641769X0.751577X0.018231X0.391577X0.641769X-0.751577X-0.018231X0*%
%ADD17RoundRect,0.090000X-0.747527X-0.080026X0.471994X-0.585168X0.747527X0.080026X-0.471994X0.585168X0*%
%ADD18RoundRect,0.225000X-0.112202X-0.317074X0.303544X-0.144866X0.112202X0.317074X-0.303544X0.144866X0*%
%ADD19RoundRect,0.225000X0.225000X0.250000X-0.225000X0.250000X-0.225000X-0.250000X0.225000X-0.250000X0*%
%ADD20RoundRect,0.200000X-0.053033X0.335876X-0.335876X0.053033X0.053033X-0.335876X0.335876X-0.053033X0*%
%ADD21RoundRect,0.090000X0.360000X-0.660000X0.360000X0.660000X-0.360000X0.660000X-0.360000X-0.660000X0*%
%ADD22RoundRect,0.200000X0.200000X0.275000X-0.200000X0.275000X-0.200000X-0.275000X0.200000X-0.275000X0*%
%ADD23RoundRect,0.090000X-0.486750X0.572952X-0.218191X-0.719439X0.486750X-0.572952X0.218191X0.719439X0*%
%ADD24RoundRect,0.225000X0.303544X0.144866X-0.112202X0.317074X-0.303544X-0.144866X0.112202X-0.317074X0*%
%ADD25RoundRect,0.225000X-0.017678X0.335876X-0.335876X0.017678X0.017678X-0.335876X0.335876X-0.017678X0*%
%ADD26RoundRect,0.090000X-0.018231X-0.751577X0.641769X0.391577X0.018231X0.751577X-0.641769X-0.391577X0*%
%ADD27C,1.750000*%
%ADD28RoundRect,0.250000X-0.600000X-0.725000X0.600000X-0.725000X0.600000X0.725000X-0.600000X0.725000X0*%
%ADD29RoundRect,0.090000X-0.721249X0.212132X0.212132X-0.721249X0.721249X-0.212132X-0.212132X0.721249X0*%
%ADD30RoundRect,0.200000X-0.275000X0.200000X-0.275000X-0.200000X0.275000X-0.200000X0.275000X0.200000X0*%
%ADD31RoundRect,0.200000X-0.200000X-0.275000X0.200000X-0.275000X0.200000X0.275000X-0.200000X0.275000X0*%
%ADD32RoundRect,0.200000X0.053033X-0.335876X0.335876X-0.053033X-0.053033X0.335876X-0.335876X0.053033X0*%
%ADD33RoundRect,0.225000X0.112202X0.317074X-0.303544X0.144866X-0.112202X-0.317074X0.303544X-0.144866X0*%
%ADD34RoundRect,0.250000X-0.325000X-0.650000X0.325000X-0.650000X0.325000X0.650000X-0.325000X0.650000X0*%
%ADD35RoundRect,0.150000X-0.335876X0.548008X-0.548008X0.335876X0.335876X-0.548008X0.548008X-0.335876X0*%
%ADD36RoundRect,0.250000X-0.212132X0.707107X-0.707107X0.212132X0.212132X-0.707107X0.707107X-0.212132X0*%
%ADD37RoundRect,0.250000X0.650000X-0.325000X0.650000X0.325000X-0.650000X0.325000X-0.650000X-0.325000X0*%
%ADD38RoundRect,0.225000X-0.303544X-0.144866X0.112202X-0.317074X0.303544X0.144866X-0.112202X0.317074X0*%
%ADD39RoundRect,0.250000X-0.229810X0.689429X-0.689429X0.229810X0.229810X-0.689429X0.689429X-0.229810X0*%
%ADD40RoundRect,0.090000X-0.212132X-0.721249X0.721249X0.212132X0.212132X0.721249X-0.721249X-0.212132X0*%
%ADD41RoundRect,0.090000X-0.660000X-0.360000X0.660000X-0.360000X0.660000X0.360000X-0.660000X0.360000X0*%
%ADD42RoundRect,0.225000X0.317074X-0.112202X0.144866X0.303544X-0.317074X0.112202X-0.144866X-0.303544X0*%
%ADD43RoundRect,0.090000X0.585168X-0.471994X0.080026X0.747527X-0.585168X0.471994X-0.080026X-0.747527X0*%
%ADD44RoundRect,0.225000X-0.250000X0.225000X-0.250000X-0.225000X0.250000X-0.225000X0.250000X0.225000X0*%
%ADD45RoundRect,0.090000X0.461938X0.593139X-0.748784X0.067255X-0.461938X-0.593139X0.748784X-0.067255X0*%
%ADD46RoundRect,0.225000X0.250000X-0.225000X0.250000X0.225000X-0.250000X0.225000X-0.250000X-0.225000X0*%
%ADD47RoundRect,0.090000X0.674710X-0.331612X-0.086482X0.746807X-0.674710X0.331612X0.086482X-0.746807X0*%
%ADD48RoundRect,0.225000X-0.225000X-0.250000X0.225000X-0.250000X0.225000X0.250000X-0.225000X0.250000X0*%
%ADD49RoundRect,0.225000X-0.144866X0.303544X-0.317074X-0.112202X0.144866X-0.303544X0.317074X0.112202X0*%
%ADD50RoundRect,0.090000X-0.751577X0.018231X0.391577X-0.641769X0.751577X-0.018231X-0.391577X0.641769X0*%
%ADD51RoundRect,0.090000X0.212132X0.721249X-0.721249X-0.212132X-0.212132X-0.721249X0.721249X0.212132X0*%
%ADD52RoundRect,0.090000X0.702877X0.266766X-0.604826X0.446527X-0.702877X-0.266766X0.604826X-0.446527X0*%
%ADD53RoundRect,0.250000X0.689429X0.229810X0.229810X0.689429X-0.689429X-0.229810X-0.229810X-0.689429X0*%
%ADD54RoundRect,0.090000X0.391577X0.641769X-0.751577X-0.018231X-0.391577X-0.641769X0.751577X0.018231X0*%
%ADD55RoundRect,0.225000X0.017678X-0.335876X0.335876X-0.017678X-0.017678X0.335876X-0.335876X0.017678X0*%
%ADD56RoundRect,0.250000X-0.650000X0.325000X-0.650000X-0.325000X0.650000X-0.325000X0.650000X0.325000X0*%
%ADD57RoundRect,0.090000X0.604833X0.446516X-0.702872X0.266778X-0.604833X-0.446516X0.702872X-0.266778X0*%
%ADD58RoundRect,0.090000X-0.080026X0.747527X-0.585168X-0.471994X0.080026X-0.747527X0.585168X0.471994X0*%
%ADD59RoundRect,0.090000X0.560224X-0.501347X0.118209X0.742446X-0.560224X0.501347X-0.118209X-0.742446X0*%
%ADD60RoundRect,0.150000X0.512500X0.150000X-0.512500X0.150000X-0.512500X-0.150000X0.512500X-0.150000X0*%
%ADD61RoundRect,0.090000X-0.641769X0.391577X0.018231X-0.751577X0.641769X-0.391577X-0.018231X0.751577X0*%
%ADD62RoundRect,0.090000X-0.471994X-0.585168X0.747527X-0.080026X0.471994X0.585168X-0.747527X0.080026X0*%
%ADD63RoundRect,0.062500X0.062500X-0.350000X0.062500X0.350000X-0.062500X0.350000X-0.062500X-0.350000X0*%
%ADD64R,2.500000X1.700000*%
%ADD65RoundRect,0.090000X0.404189X-0.633901X0.314133X0.683023X-0.404189X0.633901X-0.314133X-0.683023X0*%
%ADD66RoundRect,0.090000X-0.732649X-0.168599X0.538409X-0.524705X0.732649X0.168599X-0.538409X0.524705X0*%
%ADD67RoundRect,0.090000X0.080026X-0.747527X0.585168X0.471994X-0.080026X0.747527X-0.585168X-0.471994X0*%
%ADD68RoundRect,0.090000X0.641769X-0.391577X-0.018231X0.751577X-0.641769X0.391577X0.018231X-0.751577X0*%
%ADD69RotRect,2.950000X3.500000X135.000000*%
%ADD70RoundRect,0.090000X-0.538409X-0.524705X0.732649X-0.168599X0.538409X0.524705X-0.732649X0.168599X0*%
%ADD71RoundRect,0.225000X0.144866X-0.303544X0.317074X0.112202X-0.144866X0.303544X-0.317074X-0.112202X0*%
%ADD72RoundRect,0.090000X0.660000X0.360000X-0.660000X0.360000X-0.660000X-0.360000X0.660000X-0.360000X0*%
%ADD73RoundRect,0.090000X-0.187391X-0.728069X0.713588X0.236626X0.187391X0.728069X-0.713588X-0.236626X0*%
%ADD74RoundRect,0.225000X0.335876X0.017678X0.017678X0.335876X-0.335876X-0.017678X-0.017678X-0.335876X0*%
%ADD75RoundRect,0.150000X-0.512500X-0.150000X0.512500X-0.150000X0.512500X0.150000X-0.512500X0.150000X0*%
%ADD76RoundRect,0.090000X-0.360000X0.660000X-0.360000X-0.660000X0.360000X-0.660000X0.360000X0.660000X0*%
%ADD77RoundRect,0.090000X0.471994X0.585168X-0.747527X0.080026X-0.471994X-0.585168X0.747527X-0.080026X0*%
%ADD78RoundRect,0.090000X-0.585168X0.471994X-0.080026X-0.747527X0.585168X-0.471994X0.080026X0.747527X0*%
%ADD79RoundRect,0.225000X-0.317074X0.112202X-0.144866X-0.303544X0.317074X-0.112202X0.144866X0.303544X0*%
%ADD80RoundRect,0.090000X0.086495X0.746806X-0.674716X-0.331600X-0.086495X-0.746806X0.674716X0.331600X0*%
%ADD81RoundRect,0.250000X-0.650000X0.750000X-0.650000X-0.750000X0.650000X-0.750000X0.650000X0.750000X0*%
%ADD82RoundRect,0.090000X0.748785X0.067242X-0.461927X0.593147X-0.748785X-0.067242X0.461927X-0.593147X0*%
%ADD83RoundRect,0.200000X0.079538X0.330604X-0.290014X0.177530X-0.079538X-0.330604X0.290014X-0.177530X0*%
%ADD84RoundRect,0.090000X0.721249X-0.212132X-0.212132X0.721249X-0.721249X0.212132X0.212132X-0.721249X0*%
%ADD85RoundRect,0.090000X-0.623287X0.420373X-0.015987X-0.751628X0.623287X-0.420373X0.015987X0.751628X0*%
%ADD86RoundRect,0.090000X0.284771X0.695777X-0.739160X-0.137269X-0.284771X-0.695777X0.739160X0.137269X0*%
%ADD87RoundRect,0.062500X-0.062500X0.355000X-0.062500X-0.355000X0.062500X-0.355000X0.062500X0.355000X0*%
%ADD88RoundRect,0.062500X-0.355000X0.062500X-0.355000X-0.062500X0.355000X-0.062500X0.355000X0.062500X0*%
%ADD89R,1.680000X1.680000*%
%ADD90RoundRect,0.087500X-0.406586X0.282843X0.282843X-0.406586X0.406586X-0.282843X-0.282843X0.406586X0*%
%ADD91RoundRect,0.050000X-0.512652X0.441942X0.441942X-0.512652X0.512652X-0.441942X-0.441942X0.512652X0*%
%ADD92RoundRect,0.062500X-0.159099X0.070711X0.070711X-0.159099X0.159099X-0.070711X-0.070711X0.159099X0*%
%ADD93RoundRect,0.090000X0.751577X-0.018231X-0.391577X0.641769X-0.751577X0.018231X0.391577X-0.641769X0*%
%ADD94RoundRect,0.090000X-0.314121X0.683028X-0.404200X-0.633894X0.314121X-0.683028X0.404200X0.633894X0*%
%ADD95RoundRect,0.050000X-0.225000X-0.050000X0.225000X-0.050000X0.225000X0.050000X-0.225000X0.050000X0*%
%ADD96RoundRect,0.050000X0.050000X-0.225000X0.050000X0.225000X-0.050000X0.225000X-0.050000X-0.225000X0*%
%ADD97RoundRect,0.250000X1.110000X1.075000X-1.110000X1.075000X-1.110000X-1.075000X1.110000X-1.075000X0*%
%ADD98RoundRect,0.250000X0.515000X1.075000X-0.515000X1.075000X-0.515000X-1.075000X0.515000X-1.075000X0*%
%ADD99RoundRect,0.218750X0.218750X0.256250X-0.218750X0.256250X-0.218750X-0.256250X0.218750X-0.256250X0*%
%ADD100RoundRect,0.090000X0.739160X-0.137269X-0.284771X0.695777X-0.739160X0.137269X0.284771X-0.695777X0*%
%ADD101FreePoly0,90.000000*%
%ADD102RoundRect,0.041250X0.083750X-0.258750X0.083750X0.258750X-0.083750X0.258750X-0.083750X-0.258750X0*%
%ADD103FreePoly1,90.000000*%
%ADD104RoundRect,0.049500X1.150500X-0.100500X1.150500X0.100500X-1.150500X0.100500X-1.150500X-0.100500X0*%
%ADD105FreePoly2,90.000000*%
%ADD106FreePoly3,90.000000*%
%ADD107RoundRect,0.200000X-0.335876X-0.053033X-0.053033X-0.335876X0.335876X0.053033X0.053033X0.335876X0*%
%ADD108RoundRect,0.090000X-0.750967X0.035330X0.376871X-0.650514X0.750967X-0.035330X-0.376871X0.650514X0*%
%ADD109RoundRect,0.090000X0.747527X0.080026X-0.471994X0.585168X-0.747527X-0.080026X0.471994X-0.585168X0*%
%ADD110RoundRect,0.087500X0.250000X0.087500X-0.250000X0.087500X-0.250000X-0.087500X0.250000X-0.087500X0*%
%ADD111RoundRect,0.090000X0.218178X-0.719443X0.486760X0.572944X-0.218178X0.719443X-0.486760X-0.572944X0*%
%ADD112RoundRect,0.090000X-0.713588X0.236626X0.187391X-0.728069X0.713588X-0.236626X-0.187391X0.728069X0*%
%ADD113R,2.950000X3.500000*%
%ADD114RotRect,1.500000X0.900000X292.500000*%
%ADD115RotRect,1.500000X0.900000X112.500000*%
%ADD116RotRect,1.500000X0.900000X202.500000*%
%ADD117C,0.600000*%
%ADD118RotRect,3.900000X3.900000X202.500000*%
%ADD119RoundRect,0.050000X-0.075000X0.650000X-0.075000X-0.650000X0.075000X-0.650000X0.075000X0.650000X0*%
%ADD120RoundRect,0.050000X-0.250000X0.075000X-0.250000X-0.075000X0.250000X-0.075000X0.250000X0.075000X0*%
%ADD121RoundRect,0.050000X-0.075000X0.250000X-0.075000X-0.250000X0.075000X-0.250000X0.075000X0.250000X0*%
%ADD122RoundRect,0.090000X-0.118196X0.742448X-0.560233X-0.501338X0.118196X-0.742448X0.560233X0.501338X0*%
%ADD123RoundRect,0.062500X-0.187500X-0.062500X0.187500X-0.062500X0.187500X0.062500X-0.187500X0.062500X0*%
%ADD124R,0.900000X1.600000*%
%ADD125FreePoly0,45.000000*%
%ADD126RoundRect,0.041250X-0.123744X-0.242184X0.242184X0.123744X0.123744X0.242184X-0.242184X-0.123744X0*%
%ADD127FreePoly1,45.000000*%
%ADD128RoundRect,0.049500X0.742462X-0.884591X0.884591X-0.742462X-0.742462X0.884591X-0.884591X0.742462X0*%
%ADD129FreePoly2,45.000000*%
%ADD130FreePoly3,45.000000*%
%ADD131RoundRect,0.250001X-0.499999X-0.949999X0.499999X-0.949999X0.499999X0.949999X-0.499999X0.949999X0*%
%ADD132RoundRect,0.090000X-0.376882X-0.650508X0.750968X0.035317X0.376882X0.650508X-0.750968X-0.035317X0*%
%ADD133RoundRect,0.090000X0.018231X0.751577X-0.641769X-0.391577X-0.018231X-0.751577X0.641769X0.391577X0*%
%ADD134C,0.650000*%
%ADD135O,1.800000X1.000000*%
%ADD136O,2.100000X1.000000*%
G04 APERTURE END LIST*
D10*
%TO.C,U1*%
X211320000Y-87790000D02*
X211620000Y-87790000D01*
X211620000Y-87440000D01*
X211720000Y-87440000D01*
X211720000Y-87890000D01*
X211220000Y-87890000D01*
X211220000Y-87440000D01*
X211320000Y-87440000D01*
X211320000Y-87790000D01*
G36*
X211320000Y-87790000D02*
G01*
X211620000Y-87790000D01*
X211620000Y-87440000D01*
X211720000Y-87440000D01*
X211720000Y-87890000D01*
X211220000Y-87890000D01*
X211220000Y-87440000D01*
X211320000Y-87440000D01*
X211320000Y-87790000D01*
G37*
X212120000Y-87790000D02*
X212420000Y-87790000D01*
X212420000Y-87440000D01*
X212520000Y-87440000D01*
X212520000Y-87890000D01*
X212020000Y-87890000D01*
X212020000Y-87440000D01*
X212120000Y-87440000D01*
X212120000Y-87790000D01*
G36*
X212120000Y-87790000D02*
G01*
X212420000Y-87790000D01*
X212420000Y-87440000D01*
X212520000Y-87440000D01*
X212520000Y-87890000D01*
X212020000Y-87890000D01*
X212020000Y-87440000D01*
X212120000Y-87440000D01*
X212120000Y-87790000D01*
G37*
X215620000Y-88527500D02*
X215270000Y-88527500D01*
X215270000Y-88877500D01*
X215620000Y-88877500D01*
X215620000Y-88977500D01*
X215270000Y-88977500D01*
X215270000Y-89327500D01*
X215620000Y-89327500D01*
X215620000Y-89427500D01*
X215170000Y-89427500D01*
X215170000Y-88427500D01*
X215620000Y-88427500D01*
X215620000Y-88527500D01*
G36*
X215620000Y-88527500D02*
G01*
X215270000Y-88527500D01*
X215270000Y-88877500D01*
X215620000Y-88877500D01*
X215620000Y-88977500D01*
X215270000Y-88977500D01*
X215270000Y-89327500D01*
X215620000Y-89327500D01*
X215620000Y-89427500D01*
X215170000Y-89427500D01*
X215170000Y-88427500D01*
X215620000Y-88427500D01*
X215620000Y-88527500D01*
G37*
X215620000Y-89852500D02*
X215270000Y-89852500D01*
X215270000Y-90202500D01*
X215620000Y-90202500D01*
X215620000Y-90302500D01*
X215270000Y-90302500D01*
X215270000Y-90652500D01*
X215620000Y-90652500D01*
X215620000Y-90752500D01*
X215170000Y-90752500D01*
X215170000Y-89752500D01*
X215620000Y-89752500D01*
X215620000Y-89852500D01*
G36*
X215620000Y-89852500D02*
G01*
X215270000Y-89852500D01*
X215270000Y-90202500D01*
X215620000Y-90202500D01*
X215620000Y-90302500D01*
X215270000Y-90302500D01*
X215270000Y-90652500D01*
X215620000Y-90652500D01*
X215620000Y-90752500D01*
X215170000Y-90752500D01*
X215170000Y-89752500D01*
X215620000Y-89752500D01*
X215620000Y-89852500D01*
G37*
%TD*%
D11*
%TO.C,C53*%
X164551992Y-93151992D03*
X165648008Y-94248008D03*
%TD*%
D12*
%TO.C,BT1*%
X196935000Y-117200000D03*
X196935000Y-114200000D03*
D13*
X193515000Y-121085000D03*
X193515000Y-110315000D03*
%TD*%
D14*
%TO.C,D25*%
X115320906Y-72117657D03*
X118250909Y-73635907D03*
X120505280Y-69285297D03*
X117575277Y-67767047D03*
%TD*%
D11*
%TO.C,C39*%
X189184046Y-130377118D03*
X190280062Y-131473134D03*
%TD*%
D15*
%TO.C,R42*%
X196100000Y-85524999D03*
X196100000Y-83875001D03*
%TD*%
D16*
%TO.C,D56*%
X140243430Y-71585358D03*
X141893430Y-74443242D03*
X146136954Y-71993242D03*
X144486954Y-69135358D03*
%TD*%
D17*
%TO.C,D30*%
X162756457Y-58683997D03*
X161493601Y-61732800D03*
X166020611Y-63607949D03*
X167283467Y-60559146D03*
%TD*%
D18*
%TO.C,C66*%
X190683993Y-76196580D03*
X192116007Y-75603420D03*
%TD*%
D19*
%TO.C,C16*%
X210875000Y-111700000D03*
X209325000Y-111700000D03*
%TD*%
D20*
%TO.C,R20*%
X199171930Y-133329289D03*
X198005204Y-134496015D03*
%TD*%
D21*
%TO.C,D41*%
X121950000Y-91450000D03*
X125250000Y-91450000D03*
X125250000Y-86550000D03*
X121950000Y-86550000D03*
%TD*%
D22*
%TO.C,R48*%
X171124999Y-47500000D03*
X169475001Y-47500000D03*
%TD*%
D23*
%TO.C,D11*%
X193225649Y-77594703D03*
X189994670Y-78266101D03*
X190991593Y-83063615D03*
X194222572Y-82392217D03*
%TD*%
D24*
%TO.C,C95*%
X116516007Y-74796580D03*
X115083993Y-74203420D03*
%TD*%
D25*
%TO.C,C78*%
X136348008Y-112451992D03*
X135251992Y-113548008D03*
%TD*%
D22*
%TO.C,R37*%
X168124999Y-45200000D03*
X166475001Y-45200000D03*
%TD*%
D26*
%TO.C,D55*%
X133435358Y-80406570D03*
X136293242Y-82056570D03*
X138743242Y-77813046D03*
X135885358Y-76163046D03*
%TD*%
D27*
%TO.C,J5*%
X156250000Y-32950000D03*
D28*
X156250000Y-28600000D03*
%TD*%
D29*
%TO.C,D31*%
X173523254Y-64587659D03*
X171189801Y-66921112D03*
X174654624Y-70385935D03*
X176988077Y-68052482D03*
%TD*%
D30*
%TO.C,R29*%
X197100000Y-105275000D03*
X197100000Y-106925000D03*
%TD*%
D31*
%TO.C,R44*%
X206075001Y-88000000D03*
X207724999Y-88000000D03*
%TD*%
D32*
%TO.C,R32*%
X181716637Y-130483363D03*
X182883363Y-129316637D03*
%TD*%
D33*
%TO.C,C50*%
X139216007Y-102403420D03*
X137783993Y-102996580D03*
%TD*%
D27*
%TO.C,J2*%
X135400000Y-32950000D03*
D28*
X135400000Y-28600000D03*
%TD*%
D31*
%TO.C,R39*%
X154475001Y-93000000D03*
X156124999Y-93000000D03*
%TD*%
D34*
%TO.C,C18*%
X209825000Y-109700000D03*
X212775000Y-109700000D03*
%TD*%
D30*
%TO.C,R16*%
X216700001Y-97874999D03*
X216700001Y-99524999D03*
%TD*%
D35*
%TO.C,J8*%
X200455321Y-119133794D03*
X199748214Y-119840901D03*
D36*
X203160004Y-120000000D03*
X200614420Y-122545584D03*
%TD*%
D31*
%TO.C,R24*%
X195475001Y-100500000D03*
X197124999Y-100500000D03*
%TD*%
D37*
%TO.C,C23*%
X200700000Y-105900001D03*
X200700000Y-102949999D03*
%TD*%
%TO.C,C20*%
X207300000Y-119875001D03*
X207300000Y-116924999D03*
%TD*%
D38*
%TO.C,C68*%
X191583993Y-97403420D03*
X193016007Y-97996580D03*
%TD*%
D20*
%TO.C,R21*%
X195989949Y-134531371D03*
X194823223Y-135698097D03*
%TD*%
D39*
%TO.C,C33*%
X202672109Y-130394796D03*
X200586143Y-132480762D03*
%TD*%
D40*
%TO.C,D43*%
X129187659Y-68476746D03*
X131521112Y-70810199D03*
X134985935Y-67345376D03*
X132652482Y-65011923D03*
%TD*%
D41*
%TO.C,D6*%
X150550000Y-47350000D03*
X150550000Y-50650000D03*
X155450000Y-50650000D03*
X155450000Y-47350000D03*
%TD*%
D19*
%TO.C,C93*%
X114675000Y-96100000D03*
X113125000Y-96100000D03*
%TD*%
D42*
%TO.C,C43*%
X128796580Y-57916007D03*
X128203420Y-56483993D03*
%TD*%
D15*
%TO.C,R10*%
X204900000Y-118725000D03*
X204900000Y-117075000D03*
%TD*%
D31*
%TO.C,R43*%
X206605000Y-84780000D03*
X208255000Y-84780000D03*
%TD*%
D11*
%TO.C,C69*%
X188151992Y-107251992D03*
X189248008Y-108348008D03*
%TD*%
D30*
%TO.C,R49*%
X215200000Y-97775000D03*
X215200000Y-99425000D03*
%TD*%
D19*
%TO.C,C48*%
X142175000Y-93300000D03*
X140625000Y-93300000D03*
%TD*%
D27*
%TO.C,J7*%
X170150000Y-32950000D03*
D28*
X170150000Y-28600000D03*
%TD*%
D41*
%TO.C,D45*%
X150550000Y-67350000D03*
X150550000Y-70650000D03*
X155450000Y-70650000D03*
X155450000Y-67350000D03*
%TD*%
D18*
%TO.C,C87*%
X167483993Y-74796580D03*
X168916007Y-74203420D03*
%TD*%
D43*
%TO.C,D40*%
X125388756Y-103237795D03*
X128437559Y-101974939D03*
X126562410Y-97447929D03*
X123513607Y-98710785D03*
%TD*%
D44*
%TO.C,C88*%
X158100000Y-107925000D03*
X158100000Y-109475000D03*
%TD*%
D45*
%TO.C,D16*%
X172296048Y-125531172D03*
X170981338Y-122504368D03*
X166486994Y-124456512D03*
X167801704Y-127483316D03*
%TD*%
D46*
%TO.C,C1*%
X221700000Y-86975000D03*
X221700000Y-85425000D03*
%TD*%
D47*
%TO.C,D21*%
X121103935Y-114792179D03*
X123799984Y-112889199D03*
X120974347Y-108885979D03*
X118278298Y-110788959D03*
%TD*%
D46*
%TO.C,C41*%
X154500000Y-44850001D03*
X154500000Y-43300001D03*
%TD*%
D48*
%TO.C,C90*%
X182025000Y-83900000D03*
X183575000Y-83900000D03*
%TD*%
D49*
%TO.C,C60*%
X146500000Y-117400000D03*
X145906840Y-118832014D03*
%TD*%
D27*
%TO.C,J3*%
X142350000Y-32950000D03*
D28*
X142350000Y-28600000D03*
%TD*%
D50*
%TO.C,D46*%
X161593430Y-68835358D03*
X159943430Y-71693242D03*
X164186954Y-74143242D03*
X165836954Y-71285358D03*
%TD*%
D46*
%TO.C,C73*%
X148700000Y-59750000D03*
X148700000Y-58200000D03*
%TD*%
D19*
%TO.C,C19*%
X206275000Y-109500000D03*
X204725000Y-109500000D03*
%TD*%
D25*
%TO.C,C55*%
X148648008Y-100151992D03*
X147551992Y-101248008D03*
%TD*%
D44*
%TO.C,C54*%
X158100000Y-100025000D03*
X158100000Y-101575000D03*
%TD*%
D51*
%TO.C,D35*%
X177412341Y-108923254D03*
X175078888Y-106589801D03*
X171614065Y-110054624D03*
X173947518Y-112388077D03*
%TD*%
D52*
%TO.C,D18*%
X150393649Y-130039329D03*
X150843052Y-126770073D03*
X145988701Y-126102779D03*
X145539298Y-129372035D03*
%TD*%
D53*
%TO.C,C38*%
X187593057Y-138261360D03*
X185507091Y-136175394D03*
%TD*%
D54*
%TO.C,D50*%
X166356570Y-105814642D03*
X164706570Y-102956758D03*
X160463046Y-105406758D03*
X162113046Y-108264642D03*
%TD*%
D32*
%TO.C,R23*%
X185641637Y-124083363D03*
X186808363Y-122916637D03*
%TD*%
D55*
%TO.C,C96*%
X158051992Y-77448008D03*
X159148008Y-76351992D03*
%TD*%
D48*
%TO.C,C56*%
X172300000Y-84100000D03*
X173850000Y-84100000D03*
%TD*%
D56*
%TO.C,C25*%
X196700000Y-95924999D03*
X196700000Y-98875001D03*
%TD*%
D57*
%TO.C,D17*%
X161654679Y-129290441D03*
X161205333Y-126021173D03*
X156350971Y-126688381D03*
X156800317Y-129957649D03*
%TD*%
D58*
%TO.C,D34*%
X183316003Y-98156457D03*
X180267200Y-96893601D03*
X178392051Y-101420611D03*
X181440854Y-102683467D03*
%TD*%
D19*
%TO.C,C21*%
X213275001Y-100899999D03*
X211725001Y-100899999D03*
%TD*%
D59*
%TO.C,D22*%
X115258270Y-105138202D03*
X118367754Y-104033165D03*
X116726942Y-99416052D03*
X113617458Y-100521089D03*
%TD*%
D48*
%TO.C,C6*%
X197825000Y-81900000D03*
X199375000Y-81900000D03*
%TD*%
D60*
%TO.C,U2*%
X200100000Y-85300000D03*
X200100000Y-84350001D03*
X200100001Y-83400002D03*
X197825000Y-83400002D03*
X197825000Y-84350001D03*
X197824999Y-85300000D03*
%TD*%
D61*
%TO.C,D47*%
X170414642Y-75643430D03*
X167556758Y-77293430D03*
X170006758Y-81536954D03*
X172864642Y-79886954D03*
%TD*%
D15*
%TO.C,R13*%
X204000000Y-97725000D03*
X204000000Y-96075000D03*
%TD*%
D62*
%TO.C,D44*%
X138762205Y-60788756D03*
X140025061Y-63837559D03*
X144552071Y-61962410D03*
X143289215Y-58913607D03*
%TD*%
D63*
%TO.C,U5*%
X150500000Y-38525000D03*
X151000001Y-38525002D03*
X151500000Y-38525000D03*
X151999999Y-38525001D03*
X152500000Y-38525000D03*
X152500000Y-35600000D03*
X151999999Y-35599998D03*
X151500000Y-35600000D03*
X151000001Y-35599999D03*
X150500000Y-35600000D03*
D64*
X151500000Y-37062500D03*
%TD*%
D65*
%TO.C,D23*%
X112233992Y-94265080D03*
X115526304Y-94039940D03*
X115192006Y-89151356D03*
X111899694Y-89376496D03*
%TD*%
D31*
%TO.C,R27*%
X192375000Y-107000000D03*
X194025000Y-107000000D03*
%TD*%
D55*
%TO.C,C64*%
X178751992Y-58648008D03*
X179848008Y-57551992D03*
%TD*%
D66*
%TO.C,D7*%
X161808045Y-48141473D03*
X160917780Y-51319119D03*
X165636103Y-52641025D03*
X166526368Y-49463379D03*
%TD*%
D19*
%TO.C,C3*%
X199237500Y-86850001D03*
X197687500Y-86850001D03*
%TD*%
D67*
%TO.C,D42*%
X123283997Y-79243543D03*
X126332800Y-80506399D03*
X128207949Y-75979389D03*
X125159146Y-74716533D03*
%TD*%
D42*
%TO.C,C77*%
X139596580Y-74816007D03*
X139003420Y-73383993D03*
%TD*%
D19*
%TO.C,C11*%
X208205000Y-86380000D03*
X206655000Y-86380000D03*
%TD*%
D68*
%TO.C,D53*%
X136185358Y-101756570D03*
X139043242Y-100106570D03*
X136593242Y-95863046D03*
X133735358Y-97513046D03*
%TD*%
D69*
%TO.C,L4*%
X198889087Y-129970532D03*
X195035355Y-126116800D03*
%TD*%
D20*
%TO.C,R19*%
X193355977Y-134937957D03*
X192189251Y-136104683D03*
%TD*%
D38*
%TO.C,C100*%
X181883993Y-95203420D03*
X183316007Y-95796580D03*
%TD*%
D44*
%TO.C,C74*%
X152500000Y-128350000D03*
X152500000Y-129900000D03*
%TD*%
D70*
%TO.C,D28*%
X139496282Y-49625144D03*
X140386546Y-52802789D03*
X145104868Y-51480882D03*
X144214604Y-48303237D03*
%TD*%
D19*
%TO.C,C5*%
X194275000Y-85100000D03*
X192725000Y-85100000D03*
%TD*%
D55*
%TO.C,C35*%
X194451992Y-133948008D03*
X195548008Y-132851992D03*
%TD*%
D18*
%TO.C,C65*%
X185783993Y-66496580D03*
X187216007Y-65903420D03*
%TD*%
D42*
%TO.C,C15*%
X138396580Y-52616007D03*
X137803420Y-51183993D03*
%TD*%
D71*
%TO.C,C83*%
X160103420Y-60216007D03*
X160696580Y-58783993D03*
%TD*%
D15*
%TO.C,R3*%
X214600000Y-84925000D03*
X214600000Y-83275000D03*
%TD*%
D72*
%TO.C,D37*%
X156050000Y-120050000D03*
X156050000Y-116750000D03*
X151150000Y-116750000D03*
X151150000Y-120050000D03*
%TD*%
D73*
%TO.C,D26*%
X121203150Y-62485934D03*
X123614889Y-64738382D03*
X126959432Y-61157316D03*
X124547693Y-58904868D03*
%TD*%
D74*
%TO.C,C86*%
X142148008Y-84348008D03*
X141051992Y-83251992D03*
%TD*%
D55*
%TO.C,C92*%
X170351992Y-64848008D03*
X171448008Y-63751992D03*
%TD*%
D75*
%TO.C,U11*%
X150499999Y-43075000D03*
X150500000Y-44025000D03*
X150500000Y-44975000D03*
X152775001Y-44975000D03*
X152775000Y-43075000D03*
%TD*%
D31*
%TO.C,R12*%
X202400000Y-115650001D03*
X204050000Y-115650001D03*
%TD*%
D22*
%TO.C,R36*%
X203624999Y-113500000D03*
X201975001Y-113500000D03*
%TD*%
D71*
%TO.C,C97*%
X158706840Y-70132014D03*
X159300000Y-68700000D03*
%TD*%
D11*
%TO.C,C99*%
X177251992Y-105751992D03*
X178348008Y-106848008D03*
%TD*%
D24*
%TO.C,C94*%
X114116007Y-85596580D03*
X112683993Y-85003420D03*
%TD*%
D41*
%TO.C,D65*%
X150850000Y-87050000D03*
X150850000Y-90350000D03*
X155750000Y-90350000D03*
X155750000Y-87050000D03*
%TD*%
D46*
%TO.C,C98*%
X148700000Y-69675000D03*
X148700000Y-68125000D03*
%TD*%
D76*
%TO.C,D59*%
X166750000Y-85950000D03*
X163450000Y-85950000D03*
X163450000Y-90850000D03*
X166750000Y-90850000D03*
%TD*%
D77*
%TO.C,D36*%
X167837795Y-116611244D03*
X166574939Y-113562441D03*
X162047929Y-115437590D03*
X163310785Y-118486393D03*
%TD*%
D78*
%TO.C,D32*%
X181211244Y-74162205D03*
X178162441Y-75425061D03*
X180037590Y-79952071D03*
X183086393Y-78689215D03*
%TD*%
D79*
%TO.C,C51*%
X163203420Y-126583993D03*
X163796580Y-128016007D03*
%TD*%
D48*
%TO.C,C29*%
X210425001Y-96200000D03*
X211975001Y-96200000D03*
%TD*%
D25*
%TO.C,C85*%
X123948008Y-115051992D03*
X122851992Y-116148008D03*
%TD*%
D80*
%TO.C,D14*%
X188667486Y-110299164D03*
X185971471Y-108396137D03*
X183145766Y-112399310D03*
X185841781Y-114302337D03*
%TD*%
D48*
%TO.C,C47*%
X164625000Y-84100000D03*
X166175000Y-84100000D03*
%TD*%
D19*
%TO.C,C17*%
X208125004Y-107900000D03*
X206575004Y-107900000D03*
%TD*%
D30*
%TO.C,R35*%
X147100000Y-43150002D03*
X147100000Y-44800000D03*
%TD*%
D46*
%TO.C,C42*%
X148700000Y-44750001D03*
X148700000Y-43200001D03*
%TD*%
D72*
%TO.C,D51*%
X156050000Y-110050000D03*
X156050000Y-106750000D03*
X151150000Y-106750000D03*
X151150000Y-110050000D03*
%TD*%
D33*
%TO.C,C84*%
X118216007Y-106103420D03*
X116783993Y-106696580D03*
%TD*%
D31*
%TO.C,R11*%
X199400000Y-115650001D03*
X201050000Y-115650001D03*
%TD*%
D24*
%TO.C,C72*%
X124816007Y-81996580D03*
X123383993Y-81403420D03*
%TD*%
D81*
%TO.C,L2*%
X211600000Y-113850000D03*
X211600000Y-118350000D03*
%TD*%
D48*
%TO.C,C12*%
X209655000Y-83180000D03*
X211205000Y-83180000D03*
%TD*%
D49*
%TO.C,C46*%
X141900000Y-126300000D03*
X141306840Y-127732014D03*
%TD*%
D15*
%TO.C,R1*%
X201862500Y-86950001D03*
X201862500Y-85300003D03*
%TD*%
D30*
%TO.C,R15*%
X208800000Y-94475002D03*
X208800000Y-96125002D03*
%TD*%
D79*
%TO.C,C49*%
X167103420Y-102683993D03*
X167696580Y-104116007D03*
%TD*%
D82*
%TO.C,D19*%
X139348198Y-127722219D03*
X140662961Y-124695438D03*
X136168650Y-122743215D03*
X134853887Y-125769996D03*
%TD*%
D56*
%TO.C,C24*%
X199100001Y-98250000D03*
X199100001Y-101200002D03*
%TD*%
D29*
%TO.C,D58*%
X160866043Y-77244870D03*
X158532590Y-79578323D03*
X161997413Y-83043146D03*
X164330866Y-80709693D03*
%TD*%
D83*
%TO.C,R34*%
X204962200Y-53184287D03*
X203437800Y-53815713D03*
%TD*%
D44*
%TO.C,C2*%
X221700000Y-90425000D03*
X221700000Y-91975000D03*
%TD*%
D79*
%TO.C,C82*%
X168603420Y-112883993D03*
X169196580Y-114316007D03*
%TD*%
D74*
%TO.C,C70*%
X121496016Y-65396016D03*
X120400000Y-64300000D03*
%TD*%
D46*
%TO.C,C75*%
X148900000Y-89375000D03*
X148900000Y-87825000D03*
%TD*%
D27*
%TO.C,J6*%
X163200000Y-32950000D03*
D28*
X163200000Y-28600000D03*
%TD*%
D37*
%TO.C,C7*%
X204200000Y-89475000D03*
X204200000Y-86525000D03*
%TD*%
D84*
%TO.C,D39*%
X133076746Y-112812341D03*
X135410199Y-110478888D03*
X131945376Y-107014065D03*
X129611923Y-109347518D03*
%TD*%
D60*
%TO.C,U3*%
X219837500Y-89649999D03*
X219837500Y-88700000D03*
X219837501Y-87750001D03*
X217562500Y-87750001D03*
X217562500Y-88700000D03*
X217562499Y-89649999D03*
%TD*%
D31*
%TO.C,R8*%
X200125004Y-107900000D03*
X201775004Y-107900000D03*
%TD*%
D11*
%TO.C,C40*%
X189651992Y-128651992D03*
X190748008Y-129748008D03*
%TD*%
D31*
%TO.C,R46*%
X206605000Y-92780000D03*
X208255000Y-92780000D03*
%TD*%
D85*
%TO.C,D10*%
X188748874Y-67234685D03*
X185818870Y-68752936D03*
X188073240Y-73103547D03*
X191003244Y-71585296D03*
%TD*%
D86*
%TO.C,D15*%
X181528564Y-119040244D03*
X179445949Y-116480417D03*
X175644994Y-119572786D03*
X177727609Y-122132613D03*
%TD*%
D79*
%TO.C,C45*%
X173103420Y-122383993D03*
X173696580Y-123816007D03*
%TD*%
D32*
%TO.C,R30*%
X181416637Y-128583363D03*
X182583363Y-127416637D03*
%TD*%
D76*
%TO.C,D48*%
X174650000Y-85950000D03*
X171350000Y-85950000D03*
X171350000Y-90850000D03*
X174650000Y-90850000D03*
%TD*%
D71*
%TO.C,C62*%
X159106840Y-49732014D03*
X159700000Y-48300000D03*
%TD*%
D87*
%TO.C,U6*%
X207261982Y-112250669D03*
X206761982Y-112250669D03*
X206261982Y-112250669D03*
X205761982Y-112250669D03*
D88*
X205054482Y-112958169D03*
X205054482Y-113458169D03*
X205054482Y-113958169D03*
X205054482Y-114458169D03*
D87*
X205761982Y-115165669D03*
X206261982Y-115165669D03*
X206761982Y-115165669D03*
X207261982Y-115165669D03*
D88*
X207969482Y-114458169D03*
X207969482Y-113958169D03*
X207969482Y-113458169D03*
X207969482Y-112958169D03*
D89*
X206511982Y-113708169D03*
%TD*%
D90*
%TO.C,U12*%
X193497398Y-130659962D03*
D91*
X193214555Y-131154936D03*
D90*
X192719581Y-131437779D03*
D92*
X193709530Y-132710571D03*
X194063083Y-132357018D03*
X194416637Y-132003464D03*
X194770190Y-131649911D03*
%TD*%
D93*
%TO.C,D52*%
X145006570Y-108564642D03*
X146656570Y-105706758D03*
X142413046Y-103256758D03*
X140763046Y-106114642D03*
%TD*%
D15*
%TO.C,R2*%
X201862500Y-83850001D03*
X201862500Y-82200003D03*
%TD*%
D76*
%TO.C,D33*%
X184650000Y-85950000D03*
X181350000Y-85950000D03*
X181350000Y-90850000D03*
X184650000Y-90850000D03*
%TD*%
D21*
%TO.C,D63*%
X139850000Y-91450000D03*
X143150000Y-91450000D03*
X143150000Y-86550000D03*
X139850000Y-86550000D03*
%TD*%
D94*
%TO.C,D12*%
X194741262Y-88778341D03*
X191448954Y-88553143D03*
X191114570Y-93441721D03*
X194406878Y-93666919D03*
%TD*%
D30*
%TO.C,R17*%
X210300001Y-93075001D03*
X210300001Y-94725001D03*
%TD*%
D95*
%TO.C,U1*%
X209545000Y-88590000D03*
X209545000Y-88990000D03*
X209545000Y-89390000D03*
X209545000Y-89790000D03*
X209545000Y-90190000D03*
X209545000Y-90590000D03*
D96*
X210070000Y-91515000D03*
X210470000Y-91515000D03*
X210870000Y-91515000D03*
X211270000Y-91515000D03*
X211670000Y-91515000D03*
X212070000Y-91515000D03*
X212470000Y-91515000D03*
X212870000Y-91515000D03*
X213270000Y-91515000D03*
X213670000Y-91515000D03*
X214070000Y-91515000D03*
X214470000Y-91515000D03*
X214870000Y-91515000D03*
X214870000Y-87665000D03*
X214470000Y-87665000D03*
X214070000Y-87665000D03*
X213670000Y-87665000D03*
X213270000Y-87665000D03*
X212870000Y-87665000D03*
X210870000Y-87665000D03*
X210470000Y-87665000D03*
X210070000Y-87665000D03*
D97*
X211505000Y-89590000D03*
D98*
X214030000Y-89590000D03*
%TD*%
D99*
%TO.C,D3*%
X204950004Y-107900000D03*
X203375004Y-107900000D03*
%TD*%
D31*
%TO.C,R9*%
X203075001Y-111000000D03*
X204724999Y-111000000D03*
%TD*%
D42*
%TO.C,C80*%
X137796580Y-63616007D03*
X137203420Y-62183993D03*
%TD*%
D18*
%TO.C,C91*%
X178183993Y-72996580D03*
X179616007Y-72403420D03*
%TD*%
D20*
%TO.C,R31*%
X181483363Y-126316637D03*
X180316637Y-127483363D03*
%TD*%
D41*
%TO.C,D57*%
X150550000Y-75250000D03*
X150550000Y-78550000D03*
X155450000Y-78550000D03*
X155450000Y-75250000D03*
%TD*%
D46*
%TO.C,C13*%
X148700000Y-49775000D03*
X148700000Y-48225000D03*
%TD*%
D15*
%TO.C,R26*%
X194000000Y-105525000D03*
X194000000Y-103875000D03*
%TD*%
D11*
%TO.C,C44*%
X181600000Y-115800000D03*
X182696016Y-116896016D03*
%TD*%
D41*
%TO.C,D29*%
X150550000Y-57350000D03*
X150550000Y-60650000D03*
X155450000Y-60650000D03*
X155450000Y-57350000D03*
%TD*%
D71*
%TO.C,C63*%
X169403420Y-53016007D03*
X169996580Y-51583993D03*
%TD*%
D27*
%TO.C,J4*%
X149300000Y-32950000D03*
D28*
X149300000Y-28600000D03*
%TD*%
D100*
%TO.C,D20*%
X129337494Y-122511004D03*
X131420109Y-119951177D03*
X127619154Y-116858808D03*
X125536539Y-119418635D03*
%TD*%
D101*
%TO.C,U8*%
X195600000Y-103600000D03*
D102*
X196075000Y-103600000D03*
X196525000Y-103600000D03*
D103*
X197000000Y-103600000D03*
D104*
X196300000Y-102950000D03*
X196300000Y-102450000D03*
D105*
X197000000Y-101800000D03*
D102*
X196525000Y-101800000D03*
X196075000Y-101800000D03*
D106*
X195600000Y-101800000D03*
%TD*%
D72*
%TO.C,D61*%
X156050000Y-102150000D03*
X156050000Y-98850000D03*
X151150000Y-98850000D03*
X151150000Y-102150000D03*
%TD*%
D53*
%TO.C,C37*%
X189290113Y-136564303D03*
X187204147Y-134478337D03*
%TD*%
D107*
%TO.C,R18*%
X191358400Y-132480761D03*
X192525126Y-133647487D03*
%TD*%
D46*
%TO.C,C76*%
X148600000Y-77375000D03*
X148600000Y-75825000D03*
%TD*%
%TO.C,C27*%
X198700000Y-104400000D03*
X198700000Y-102850000D03*
%TD*%
D44*
%TO.C,C81*%
X157900000Y-117825000D03*
X157900000Y-119375000D03*
%TD*%
D55*
%TO.C,C34*%
X199171930Y-135592031D03*
X200267946Y-134496015D03*
%TD*%
D21*
%TO.C,D54*%
X131950000Y-91450000D03*
X135250000Y-91450000D03*
X135250000Y-86550000D03*
X131950000Y-86550000D03*
%TD*%
D19*
%TO.C,C31*%
X216400001Y-101000000D03*
X214850001Y-101000000D03*
%TD*%
D44*
%TO.C,C22*%
X205600000Y-94524999D03*
X205600000Y-96074999D03*
%TD*%
D31*
%TO.C,R38*%
X157875000Y-86700000D03*
X159525000Y-86700000D03*
%TD*%
D51*
%TO.C,D60*%
X164755130Y-96266043D03*
X162421677Y-93932590D03*
X158956854Y-97397413D03*
X161290307Y-99730866D03*
%TD*%
D19*
%TO.C,C71*%
X124275000Y-93400000D03*
X122725000Y-93400000D03*
%TD*%
D31*
%TO.C,R7*%
X149850000Y-40100000D03*
X151500000Y-40100000D03*
%TD*%
D38*
%TO.C,C57*%
X171800000Y-93900000D03*
X173232014Y-94493160D03*
%TD*%
D44*
%TO.C,C26*%
X201100001Y-99750001D03*
X201100001Y-101300001D03*
%TD*%
D53*
%TO.C,C36*%
X190987170Y-134867247D03*
X188901204Y-132781281D03*
%TD*%
D19*
%TO.C,C14*%
X207875000Y-89800000D03*
X206325000Y-89800000D03*
%TD*%
D108*
%TO.C,D8*%
X172435158Y-51940927D03*
X170720548Y-54760524D03*
X174907218Y-57306459D03*
X176621828Y-54486862D03*
%TD*%
D109*
%TO.C,D38*%
X143843543Y-118716003D03*
X145106399Y-115667200D03*
X140579389Y-113792051D03*
X139316533Y-116840854D03*
%TD*%
D49*
%TO.C,C58*%
X147896580Y-107483993D03*
X147303420Y-108916007D03*
%TD*%
D31*
%TO.C,R6*%
X149975000Y-41600000D03*
X151625000Y-41600000D03*
%TD*%
D32*
%TO.C,R22*%
X183516637Y-126283363D03*
X184683363Y-125116637D03*
%TD*%
D30*
%TO.C,R47*%
X209730000Y-84755000D03*
X209730000Y-86405000D03*
%TD*%
D15*
%TO.C,R41*%
X147900000Y-41524999D03*
X147900000Y-39875001D03*
%TD*%
%TO.C,R5*%
X211300000Y-86425000D03*
X211300000Y-84775000D03*
%TD*%
%TO.C,R4*%
X213000000Y-84925000D03*
X213000000Y-83275000D03*
%TD*%
D110*
%TO.C,U13*%
X170812500Y-46300000D03*
X170812499Y-45800000D03*
X170812500Y-45300000D03*
X169387500Y-45300000D03*
X169387501Y-45800000D03*
X169387500Y-46300000D03*
%TD*%
D20*
%TO.C,R33*%
X183283363Y-131016637D03*
X182116637Y-132183363D03*
%TD*%
D19*
%TO.C,C32*%
X207375000Y-97700000D03*
X205825000Y-97700000D03*
%TD*%
D15*
%TO.C,R14*%
X207200001Y-96124999D03*
X207200001Y-94474999D03*
%TD*%
D74*
%TO.C,C79*%
X129548008Y-71748008D03*
X128451992Y-70651992D03*
%TD*%
D15*
%TO.C,R28*%
X195500000Y-106625000D03*
X195500000Y-104975000D03*
%TD*%
D111*
%TO.C,D24*%
X112255402Y-82979223D03*
X115486369Y-83650678D03*
X116483376Y-78853181D03*
X113252409Y-78181726D03*
%TD*%
D32*
%TO.C,R25*%
X185916637Y-126083363D03*
X187083363Y-124916637D03*
%TD*%
D112*
%TO.C,D9*%
X181643056Y-58466673D03*
X179231318Y-60719120D03*
X182575862Y-64300185D03*
X184987600Y-62047738D03*
%TD*%
D34*
%TO.C,C30*%
X211924999Y-94200000D03*
X214875001Y-94200000D03*
%TD*%
D25*
%TO.C,C52*%
X132248008Y-122151992D03*
X131151992Y-123248008D03*
%TD*%
D113*
%TO.C,L3*%
X209224999Y-102100000D03*
X203774999Y-102100000D03*
%TD*%
D33*
%TO.C,C89*%
X128316007Y-104103420D03*
X126883993Y-104696580D03*
%TD*%
D24*
%TO.C,C61*%
X134816007Y-83496580D03*
X133383993Y-82903420D03*
%TD*%
D19*
%TO.C,C28*%
X215675000Y-96300000D03*
X214125000Y-96300000D03*
%TD*%
D114*
%TO.C,U4*%
X206715569Y-54518369D03*
X205542242Y-55004379D03*
X204368915Y-55490385D03*
X203195588Y-55976393D03*
X202022262Y-56462401D03*
X200848934Y-56948409D03*
X199675607Y-57434417D03*
X198502280Y-57920425D03*
X197328953Y-58406433D03*
X196155626Y-58892441D03*
X194982299Y-59378449D03*
X193808973Y-59864456D03*
X192635645Y-60350464D03*
D115*
X191462318Y-60836473D03*
D116*
X190982905Y-62945474D03*
X191468913Y-64118802D03*
X191954921Y-65292128D03*
X192440929Y-66465456D03*
X192926937Y-67638782D03*
X193412944Y-68812109D03*
X193898953Y-69985437D03*
X194384961Y-71158763D03*
X194870968Y-72332091D03*
X195356977Y-73505417D03*
X195842984Y-74678744D03*
X196328992Y-75852072D03*
D114*
X198159278Y-77004365D03*
X199332606Y-76518357D03*
X200505932Y-76032348D03*
X201679259Y-75546341D03*
X202852586Y-75060332D03*
X204025913Y-74574325D03*
X205199241Y-74088316D03*
X206372567Y-73602308D03*
X207545894Y-73116301D03*
X208719222Y-72630293D03*
X209892548Y-72144285D03*
X211065876Y-71658277D03*
X212239202Y-71172269D03*
X213412529Y-70686261D03*
D117*
X202468633Y-62609502D03*
X201175202Y-63145259D03*
X202089794Y-63524096D03*
X203383227Y-62988339D03*
X200796365Y-64059853D03*
X201710958Y-64438689D03*
X203004390Y-63902934D03*
D118*
X202357674Y-64170812D03*
D117*
X203918984Y-64281771D03*
X202625554Y-64817527D03*
X201332121Y-65353284D03*
X203540146Y-65196365D03*
X202246715Y-65732122D03*
%TD*%
D40*
%TO.C,D64*%
X141844870Y-81133957D03*
X144178323Y-83467410D03*
X147643146Y-80002587D03*
X145309693Y-77669134D03*
%TD*%
D48*
%TO.C,C67*%
X192725000Y-86700000D03*
X194275000Y-86700000D03*
%TD*%
D119*
%TO.C,U10*%
X212600000Y-98100001D03*
X211600000Y-98100001D03*
D120*
X210700000Y-97850001D03*
X210700000Y-98350001D03*
X210700000Y-98850001D03*
X210700000Y-99350001D03*
D119*
X212100000Y-99100001D03*
D121*
X212600000Y-99500001D03*
D120*
X213500000Y-99350001D03*
X213500000Y-98850001D03*
X213500000Y-98350001D03*
X213500000Y-97850001D03*
%TD*%
D48*
%TO.C,C4*%
X197825000Y-80300000D03*
X199375000Y-80300000D03*
%TD*%
D84*
%TO.C,D62*%
X145733957Y-100155130D03*
X148067410Y-97821677D03*
X144602587Y-94356854D03*
X142269134Y-96690307D03*
%TD*%
D48*
%TO.C,C8*%
X203125000Y-91200000D03*
X204675000Y-91200000D03*
%TD*%
D122*
%TO.C,D13*%
X193183360Y-99956165D03*
X190073894Y-98851074D03*
X188433002Y-103468159D03*
X191542468Y-104573250D03*
%TD*%
D19*
%TO.C,C59*%
X134175000Y-93300000D03*
X132625000Y-93300000D03*
%TD*%
D22*
%TO.C,R40*%
X159525000Y-90800000D03*
X157875000Y-90800000D03*
%TD*%
D34*
%TO.C,C10*%
X209755000Y-81080000D03*
X212705000Y-81080000D03*
%TD*%
D123*
%TO.C,U7*%
X157700000Y-88000000D03*
X157700000Y-88500000D03*
X157700000Y-89000000D03*
X157700000Y-89500000D03*
X159600000Y-89500000D03*
X159600000Y-89000000D03*
X159600000Y-88500000D03*
X159600000Y-88000000D03*
D124*
X158650000Y-88750000D03*
%TD*%
D125*
%TO.C,U9*%
X183789351Y-128318234D03*
D126*
X184125227Y-128654110D03*
X184443425Y-128972308D03*
D127*
X184779301Y-129308184D03*
D128*
X184743945Y-128353590D03*
X185097499Y-128000036D03*
D129*
X186052093Y-128035392D03*
D126*
X185716217Y-127699516D03*
X185398019Y-127381318D03*
D130*
X185062143Y-127045442D03*
%TD*%
D131*
%TO.C,L1*%
X197612500Y-89950001D03*
X201312500Y-89950001D03*
%TD*%
D132*
%TO.C,D27*%
X129465876Y-54798344D03*
X131180437Y-57617969D03*
X135367152Y-55072106D03*
X133652591Y-52252481D03*
%TD*%
D31*
%TO.C,R45*%
X206275000Y-91300000D03*
X207925000Y-91300000D03*
%TD*%
D46*
%TO.C,C9*%
X203400000Y-84875000D03*
X203400000Y-83325000D03*
%TD*%
D133*
%TO.C,D49*%
X173164642Y-96993430D03*
X170306758Y-95343430D03*
X167856758Y-99586954D03*
X170714642Y-101236954D03*
%TD*%
D134*
%TO.C,J1*%
X224829999Y-85810000D03*
X224830000Y-91590001D03*
D135*
X228510000Y-84380000D03*
D136*
X224310000Y-84380000D03*
D135*
X228510000Y-93019999D03*
D136*
X224310000Y-93020000D03*
%TD*%
M02*
