%TF.GenerationSoftware,KiCad,Pcbnew,10.0.0*%
%TF.CreationDate,2026-04-07T16:29:33+02:00*%
%TF.ProjectId,PCB,5043422e-6b69-4636-9164-5f7063625858,rev?*%
%TF.SameCoordinates,Original*%
%TF.FileFunction,Copper,L3,Inr*%
%TF.FilePolarity,Positive*%
%FSLAX46Y46*%
G04 Gerber Fmt 4.6, Leading zero omitted, Abs format (unit mm)*
G04 Created by KiCad (PCBNEW 10.0.0) date 2026-04-07 16:29:33*
%MOMM*%
%LPD*%
G01*
G04 APERTURE LIST*
G04 Aperture macros list*
%AMRoundRect*
0 Rectangle with rounded corners*
0 $1 Rounding radius*
0 $2 $3 $4 $5 $6 $7 $8 $9 X,Y pos of 4 corners*
0 Add a 4 corners polygon primitive as box body*
4,1,4,$2,$3,$4,$5,$6,$7,$8,$9,$2,$3,0*
0 Add four circle primitives for the rounded corners*
1,1,$1+$1,$2,$3*
1,1,$1+$1,$4,$5*
1,1,$1+$1,$6,$7*
1,1,$1+$1,$8,$9*
0 Add four rect primitives between the rounded corners*
20,1,$1+$1,$2,$3,$4,$5,0*
20,1,$1+$1,$4,$5,$6,$7,0*
20,1,$1+$1,$6,$7,$8,$9,0*
20,1,$1+$1,$8,$9,$2,$3,0*%
G04 Aperture macros list end*
%TA.AperFunction,ComponentPad*%
%ADD10RoundRect,0.250000X-0.600000X-0.725000X0.600000X-0.725000X0.600000X0.725000X-0.600000X0.725000X0*%
%TD*%
%TA.AperFunction,HeatsinkPad*%
%ADD11C,0.500000*%
%TD*%
%TA.AperFunction,HeatsinkPad*%
%ADD12C,0.600000*%
%TD*%
%TA.AperFunction,ComponentPad*%
%ADD13O,1.800000X1.000000*%
%TD*%
%TA.AperFunction,ComponentPad*%
%ADD14O,2.100000X1.000000*%
%TD*%
%TA.AperFunction,ViaPad*%
%ADD15C,0.600000*%
%TD*%
%TA.AperFunction,ViaPad*%
%ADD16C,0.500000*%
%TD*%
%TA.AperFunction,Conductor*%
%ADD17C,0.200000*%
%TD*%
%TA.AperFunction,Conductor*%
%ADD18C,0.500000*%
%TD*%
%TA.AperFunction,Conductor*%
%ADD19C,0.138200*%
%TD*%
%TA.AperFunction,Conductor*%
%ADD20C,0.100000*%
%TD*%
G04 APERTURE END LIST*
D10*
%TO.N,/Microcontroller/CT_4*%
%TO.C,J5*%
X156250000Y-28600000D03*
%TD*%
%TO.N,/Microcontroller/CT_1*%
%TO.C,J2*%
X135400000Y-28600000D03*
%TD*%
%TO.N,/Microcontroller/CT_6*%
%TO.C,J7*%
X170150000Y-28600000D03*
%TD*%
%TO.N,/Microcontroller/CT_2*%
%TO.C,J3*%
X142350000Y-28600000D03*
%TD*%
%TO.N,/Microcontroller/CT_5*%
%TO.C,J6*%
X163200000Y-28600000D03*
%TD*%
D11*
%TO.N,GND*%
%TO.C,U1*%
X210395000Y-89590000D03*
X211505000Y-88515000D03*
X211505000Y-89590000D03*
X211505000Y-90665000D03*
X212615000Y-89590000D03*
%TO.N,Net-(U1-DRAIN-Pad15)*%
X214030000Y-88515000D03*
X214030000Y-89590000D03*
X214030000Y-90665000D03*
%TD*%
D10*
%TO.N,/Microcontroller/CT_3*%
%TO.C,J4*%
X149300000Y-28600000D03*
%TD*%
D12*
%TO.N,GND*%
%TO.C,U4*%
X202468633Y-62609502D03*
X201175202Y-63145259D03*
X202089794Y-63524096D03*
X203383227Y-62988339D03*
X200796365Y-64059853D03*
X201710958Y-64438689D03*
X203004390Y-63902934D03*
X203918984Y-64281771D03*
X202625554Y-64817527D03*
X201332121Y-65353284D03*
X203540146Y-65196365D03*
X202246715Y-65732122D03*
%TD*%
D13*
%TO.N,unconnected-(J1-SHIELD-PadSH)_2*%
%TO.C,J1*%
X228510000Y-84380000D03*
D14*
%TO.N,unconnected-(J1-SHIELD-PadSH)_1*%
X224310000Y-84380000D03*
D13*
%TO.N,unconnected-(J1-SHIELD-PadSH)_3*%
X228510000Y-93019999D03*
D14*
%TO.N,unconnected-(J1-SHIELD-PadSH)*%
X224310000Y-93020000D03*
%TD*%
D15*
%TO.N,GND*%
X191000000Y-136300000D03*
X103600000Y-118900000D03*
X95700000Y-69500000D03*
X101100000Y-109100000D03*
X107900000Y-39000000D03*
X198600000Y-113700000D03*
X198300000Y-106800000D03*
D16*
X214274125Y-98800000D03*
D15*
X190000000Y-75200000D03*
X136700000Y-64000000D03*
X134300000Y-149600000D03*
X157100000Y-136700000D03*
X90500000Y-86100000D03*
X202300000Y-105700000D03*
X106200000Y-63300000D03*
X155400000Y-61800000D03*
X104100000Y-47700000D03*
X197100000Y-95900000D03*
X156200000Y-125700000D03*
X198900000Y-105500000D03*
X180200000Y-90900000D03*
X166800000Y-73700000D03*
X135300000Y-93400000D03*
X190400000Y-96800000D03*
X170900000Y-84100000D03*
X146300000Y-62000000D03*
X147400000Y-118500000D03*
X171622183Y-46570713D03*
X99600000Y-87300000D03*
X150200000Y-100100000D03*
X207000000Y-83500000D03*
X114400000Y-135800000D03*
X148700000Y-50800000D03*
X206900000Y-106600000D03*
X165400000Y-75200000D03*
X177800000Y-59200000D03*
X125200000Y-44100000D03*
X205100000Y-92300000D03*
X180900000Y-114900000D03*
X194000000Y-140100000D03*
X201800000Y-98700000D03*
X130400000Y-134400000D03*
X136500000Y-85800000D03*
X93300000Y-119900000D03*
X197700000Y-115400000D03*
X198800000Y-96800000D03*
X158800000Y-50800000D03*
X216800000Y-96600000D03*
X165300000Y-82900000D03*
X160900000Y-41600000D03*
X122400000Y-66200000D03*
X216400000Y-102000000D03*
X189800000Y-137700000D03*
X179300000Y-37300000D03*
X157500000Y-92300000D03*
X130500000Y-72700000D03*
X106700000Y-130600000D03*
X183600000Y-30600000D03*
X121900000Y-69700000D03*
X103700000Y-72800000D03*
X127600000Y-96700000D03*
X162100000Y-90900000D03*
X170400000Y-82700000D03*
X211977236Y-97397840D03*
X105100000Y-94800000D03*
X119100000Y-105600000D03*
X121900000Y-107800000D03*
X180700000Y-94800000D03*
X194900000Y-107800000D03*
X191500000Y-36400000D03*
X186400000Y-42300000D03*
X151600000Y-115600000D03*
X167000000Y-52700000D03*
X166400000Y-149400000D03*
X158200000Y-116500000D03*
X196200000Y-95800000D03*
X159900000Y-104500000D03*
X149300000Y-99400000D03*
X148500000Y-60800000D03*
X163300000Y-82600000D03*
X146500000Y-151700000D03*
X203500000Y-109800000D03*
X94500000Y-112600000D03*
X191500000Y-85100000D03*
X150100000Y-140000000D03*
X143000000Y-102200000D03*
X172800000Y-121300000D03*
X190500000Y-137100000D03*
X144200000Y-21600000D03*
X147700000Y-69800000D03*
X143600000Y-84900000D03*
X211141932Y-95555073D03*
X186465695Y-74214225D03*
X126400000Y-86500000D03*
X89400000Y-96400000D03*
X196100000Y-113100000D03*
X96600000Y-77600000D03*
X158100000Y-96500000D03*
X178200000Y-135200000D03*
X169100000Y-66000000D03*
X155400000Y-51900000D03*
X179300000Y-127900000D03*
X175700000Y-56500000D03*
X148700000Y-45600000D03*
X181200000Y-132600000D03*
X150500000Y-21600000D03*
X213100000Y-92800000D03*
X177400000Y-102600000D03*
X173600000Y-71400000D03*
X116200000Y-89200000D03*
X117000000Y-42700000D03*
X196200000Y-115400000D03*
X137700000Y-95400000D03*
X127300000Y-132300000D03*
X220900000Y-88700000D03*
X128500000Y-115800000D03*
X201000000Y-98600000D03*
X168300000Y-100700000D03*
X168900000Y-54300000D03*
X127100000Y-75500000D03*
X138800000Y-53700000D03*
X88400000Y-76200000D03*
X133000000Y-106500000D03*
X155500000Y-79900000D03*
X208162501Y-96762501D03*
X109700000Y-74100000D03*
X156900000Y-76800000D03*
X191700000Y-137100000D03*
X138500000Y-141400000D03*
X136575735Y-54175735D03*
X172600000Y-135300000D03*
X135900000Y-83900000D03*
X166100000Y-64900000D03*
X202200000Y-106400000D03*
X90300000Y-66000000D03*
X204500000Y-87800000D03*
X168300000Y-102500000D03*
X165400000Y-92600000D03*
X176600000Y-105000000D03*
X148600000Y-81100000D03*
X142500000Y-125200000D03*
X222000000Y-84500000D03*
X203500000Y-117000000D03*
X199800000Y-96900000D03*
X189200000Y-127600000D03*
X216800000Y-96000000D03*
X204600000Y-112200000D03*
X159300000Y-61700000D03*
X167800000Y-111600000D03*
X157800000Y-22300000D03*
X197200000Y-107800000D03*
X125800000Y-93700000D03*
X140400000Y-101700000D03*
X125100000Y-114400000D03*
X187700000Y-102600000D03*
X148700000Y-78600000D03*
X194932523Y-134753483D03*
X113700000Y-35700000D03*
X213300000Y-94200000D03*
X132400000Y-42000000D03*
X129200000Y-59100000D03*
X111400000Y-48600000D03*
X143724265Y-92775735D03*
X211257121Y-97318732D03*
X116300000Y-53100000D03*
X198600000Y-114500000D03*
X205100000Y-85100000D03*
X111900000Y-61300000D03*
X181000000Y-83900000D03*
X163600000Y-125200000D03*
X207600000Y-115700000D03*
X157900000Y-106700000D03*
X127100000Y-35200000D03*
X155500000Y-71700000D03*
X99600000Y-56300000D03*
X91400000Y-103400000D03*
X180100000Y-81500000D03*
X115800000Y-96200000D03*
X181800000Y-65300000D03*
X188600000Y-129500000D03*
X170400000Y-93500000D03*
X196411229Y-100587698D03*
X166800000Y-122600000D03*
X179800000Y-128400000D03*
X146100000Y-124700000D03*
X187900000Y-139300000D03*
X213900000Y-110000000D03*
X208000000Y-95400000D03*
X145500000Y-52500000D03*
X151500000Y-37062500D03*
X125600000Y-29400000D03*
X188500000Y-128100000D03*
X102500000Y-92400000D03*
X136900000Y-121700000D03*
X149000000Y-90500000D03*
X155600000Y-91800000D03*
X129600000Y-103900000D03*
X95200000Y-96700000D03*
X133000000Y-121100000D03*
X118200000Y-59100000D03*
X95000000Y-90800000D03*
X184400000Y-67400000D03*
X116300000Y-98100000D03*
X159200000Y-99500000D03*
X194100000Y-130100000D03*
X217300000Y-101000000D03*
X197300000Y-113000000D03*
X191200000Y-86600000D03*
X213900000Y-109200000D03*
X176500000Y-145600000D03*
X126800000Y-141500000D03*
X148400000Y-105900000D03*
X206900000Y-90600000D03*
X137100000Y-111900000D03*
X203800000Y-118500000D03*
X203500000Y-109100000D03*
X187000000Y-106500000D03*
X139900000Y-76300000D03*
X138000000Y-76700000D03*
X128300000Y-60400000D03*
X140100000Y-40900000D03*
X114800000Y-86600000D03*
X174700000Y-140500000D03*
X144800000Y-86200000D03*
X190000000Y-93100000D03*
X147700000Y-71800000D03*
X105100000Y-83000000D03*
X178900000Y-27000000D03*
X181600000Y-133100000D03*
X124300000Y-52800000D03*
X152500000Y-127100000D03*
X113500000Y-117000000D03*
X170100000Y-90800000D03*
X150500000Y-108100000D03*
X110000000Y-109700000D03*
X175700000Y-118200000D03*
X206100000Y-106600000D03*
X164800000Y-142800000D03*
X126200000Y-82600000D03*
X202400000Y-111100000D03*
X136300000Y-67800000D03*
X100100000Y-64500000D03*
X188000000Y-130000000D03*
X182200000Y-111700000D03*
X208000000Y-115200000D03*
X170600000Y-109000000D03*
X102500000Y-100900000D03*
X162100000Y-116800000D03*
X197500000Y-43200000D03*
X117800000Y-79200000D03*
X211474192Y-99094120D03*
X205600000Y-84500000D03*
X203100000Y-87000000D03*
X176900000Y-73900000D03*
X145800000Y-93700000D03*
X211900000Y-92600000D03*
X134400000Y-47400000D03*
X191200000Y-84200000D03*
X188800000Y-138600000D03*
X185500000Y-144100000D03*
X158250000Y-68700000D03*
X194700000Y-130700000D03*
X114900000Y-126400000D03*
X155900000Y-39000000D03*
X117500000Y-75300000D03*
X141200000Y-112700000D03*
X106500000Y-57700000D03*
%TO.N,+Battery_OUT*%
X196400000Y-118500000D03*
X210200000Y-119900000D03*
X209800000Y-120600000D03*
X201800000Y-128800000D03*
X196900000Y-116100000D03*
X197900000Y-118500000D03*
X211000000Y-120000000D03*
X209800000Y-119200000D03*
X195100000Y-117200000D03*
X198700000Y-118100000D03*
X199400000Y-127000000D03*
X201000000Y-128200000D03*
X197300000Y-119100000D03*
X211800000Y-120000000D03*
X209200000Y-120100000D03*
X208800000Y-119400000D03*
X200100000Y-127400000D03*
%TO.N,Net-(D25-DOUT)*%
X118900000Y-72200000D03*
X123500000Y-60000000D03*
%TO.N,Net-(D24-DOUT)*%
X116800000Y-69100000D03*
X115969210Y-82010263D03*
%TO.N,Net-(D56-DOUT)*%
X153900000Y-75100000D03*
X143200000Y-73800000D03*
%TO.N,Net-(D55-DOUT)*%
X137100000Y-80900000D03*
X143400000Y-70100000D03*
%TO.N,Net-(D30-DOUT)*%
X162800000Y-62300000D03*
X175900000Y-67000000D03*
%TO.N,Net-(D29-DOUT)*%
X152000000Y-60700000D03*
X165600000Y-60200000D03*
%TO.N,DCDC_BAT_EN*%
X197000000Y-134496015D03*
X189200000Y-74400000D03*
%TO.N,Net-(D41-DOUT)*%
X125200000Y-90200000D03*
X125200000Y-76200000D03*
%TO.N,Net-(D40-DOUT)*%
X121900000Y-87900000D03*
X127700000Y-100700000D03*
%TO.N,+3.3V*%
X202800000Y-92800000D03*
X148900000Y-41800000D03*
X170400000Y-48300000D03*
X199400000Y-107300000D03*
%TO.N,Net-(D11-DOUT)*%
X190300000Y-79700000D03*
X194500000Y-92000000D03*
%TO.N,Net-(D10-DOUT)*%
X186500000Y-70000000D03*
X193900000Y-80800000D03*
%TO.N,Net-(D54-DOUT)*%
X135400000Y-77600000D03*
X135300000Y-90000000D03*
%TO.N,Net-(D31-DOUT)*%
X182400000Y-77300000D03*
X172200000Y-67900000D03*
%TO.N,+3.3V_Analog*%
X157600000Y-85500000D03*
X151900000Y-44100000D03*
%TO.N,ALERT_TMP*%
X191500000Y-68400000D03*
X156953139Y-89624583D03*
%TO.N,+PD_PWR*%
X202600000Y-112400000D03*
X207600000Y-110400000D03*
%TO.N,Net-(D43-DOUT)*%
X132500000Y-69800000D03*
X142000000Y-60100000D03*
%TO.N,Net-(D42-DOUT)*%
X126900000Y-79200000D03*
X131700000Y-66300000D03*
%TO.N,Net-(D6-DOUT)*%
X165000000Y-49000000D03*
X151900000Y-50500000D03*
%TO.N,Net-(U1-ADCIN1)*%
X208800000Y-88000000D03*
X207483370Y-85596075D03*
%TO.N,Net-(U10-VCC)*%
X210712217Y-93838581D03*
X214000000Y-100100000D03*
%TO.N,Net-(D45-DOUT)*%
X152000000Y-70700000D03*
X164400000Y-70500000D03*
%TO.N,Net-(D44-DOUT)*%
X154000000Y-67400000D03*
X141400000Y-63400000D03*
%TO.N,Net-(D39-DOUT)*%
X124100000Y-99900000D03*
X134400000Y-109500000D03*
%TO.N,Net-(D16-DOUT)*%
X158300000Y-129600000D03*
X169700000Y-123200000D03*
%TO.N,Net-(D15-DOUT)*%
X178400000Y-117400000D03*
X169200000Y-126800000D03*
%TO.N,Net-(J1-CC1)*%
X222500000Y-87242700D03*
X213950786Y-86510956D03*
%TO.N,Net-(D21-DOUT)*%
X114200000Y-101900000D03*
X122900000Y-111700000D03*
%TO.N,Net-(D20-DOUT)*%
X119200000Y-112000000D03*
X130400000Y-119000000D03*
%TO.N,Net-(D46-DOUT)*%
X161200000Y-72300000D03*
X171900000Y-78400000D03*
%TO.N,REGN*%
X201900000Y-114675001D03*
X206750005Y-111000000D03*
%TO.N,Net-(D35-DOUT)*%
X164600000Y-117800000D03*
X173900000Y-107500000D03*
%TO.N,Net-(D34-DOUT)*%
X179600000Y-98200000D03*
X174800000Y-111000000D03*
%TO.N,Net-(D18-DOUT)*%
X136200000Y-126500000D03*
X149500000Y-126600000D03*
%TO.N,Net-(D17-DOUT)*%
X146800000Y-129500000D03*
X159600000Y-126200000D03*
%TO.N,Net-(D50-DOUT)*%
X152800000Y-110000000D03*
X163400000Y-103700000D03*
%TO.N,Net-(D49-DOUT)*%
X169600000Y-96500000D03*
X163400000Y-106900000D03*
%TO.N,Net-(U8-PGTH)*%
X184806034Y-129966514D03*
X184600000Y-124200000D03*
X197271858Y-104075000D03*
%TO.N,Net-(D33-DOUT)*%
X181400000Y-87300000D03*
X181500000Y-101000000D03*
%TO.N,Net-(D22-DOUT)*%
X112000000Y-90700000D03*
X117900000Y-102700000D03*
%TO.N,Net-(D47-DOUT)*%
X168300000Y-79000000D03*
X174600000Y-89400000D03*
%TO.N,Net-(U4-IO12)*%
X150674999Y-39503290D03*
X192100000Y-69200000D03*
%TO.N,SDA*%
X152400000Y-40500000D03*
X209757303Y-92223973D03*
X190650000Y-65650000D03*
X156296561Y-88600808D03*
%TO.N,SCL*%
X157075358Y-88417837D03*
X193500000Y-64800000D03*
X193200000Y-58600000D03*
X211082253Y-92272918D03*
X152424265Y-39675735D03*
%TO.N,Net-(D23-DOUT)*%
X115400000Y-92500000D03*
X113000000Y-79800000D03*
%TO.N,Net-(D7-DOUT)*%
X162400000Y-51600000D03*
X175300000Y-53700000D03*
%TO.N,Net-(D53-DOUT)*%
X138300000Y-98900000D03*
X132000000Y-88000000D03*
%TO.N,Net-(D52-DOUT)*%
X134500000Y-98900000D03*
X145500000Y-105100000D03*
%TO.N,Net-(D28-DOUT)*%
X154200000Y-56400000D03*
X142000000Y-53100000D03*
%TO.N,Net-(D27-DOUT)*%
X132500000Y-56800000D03*
X142700000Y-48900000D03*
%TO.N,Net-(D37-DOUT)*%
X140800000Y-117500000D03*
X154600000Y-116700000D03*
%TO.N,Net-(D36-DOUT)*%
X152500000Y-120100000D03*
X165000000Y-114100000D03*
%TO.N,Net-(D26-DOUT)*%
X132400000Y-53000000D03*
X124700000Y-63700000D03*
%TO.N,EN_BAT*%
X201400000Y-111600000D03*
X189400000Y-66300000D03*
%TO.N,Net-(D64-DOUT)*%
X146100000Y-83600000D03*
X154200000Y-87100000D03*
%TO.N,Net-(D59-DOUT)*%
X163400000Y-87300000D03*
X162500000Y-98700000D03*
%TO.N,Net-(D58-DOUT)*%
X166700000Y-89400000D03*
X159500000Y-80600000D03*
%TO.N,Net-(D32-DOUT)*%
X184400000Y-89300000D03*
X178600000Y-76600000D03*
%TO.N,Net-(D14-DOUT)*%
X185200000Y-109500000D03*
X178900000Y-121200000D03*
%TO.N,Net-(D13-DOUT)*%
X189500000Y-100200000D03*
X186800000Y-112900000D03*
%TO.N,Net-(D51-DOUT)*%
X154600000Y-106700000D03*
X142000000Y-106700000D03*
%TO.N,Net-(D19-DOUT)*%
X139200000Y-124100000D03*
X126700000Y-120300000D03*
%TO.N,Net-(D57-DOUT)*%
X152100000Y-78600000D03*
X163200000Y-79600000D03*
%TO.N,Net-(J1-CC2)*%
X213246281Y-86890000D03*
X225000000Y-90500000D03*
%TO.N,Net-(D38-DOUT)*%
X143600000Y-115000000D03*
X130650000Y-110650000D03*
%TO.N,Net-(J1-D--PadA7)*%
X222343312Y-89098830D03*
%TO.N,Net-(J1-D+-PadA6)*%
X222700000Y-88380900D03*
%TO.N,D+*%
X195100000Y-62825000D03*
X217475000Y-85400000D03*
%TO.N,VBUS*%
X216000000Y-88000000D03*
X216026215Y-88733454D03*
X216578856Y-89048006D03*
X212277795Y-87234761D03*
X216531375Y-88356208D03*
%TO.N,D-*%
X195100000Y-61975000D03*
X218325000Y-85400000D03*
%TO.N,Net-(D10-DIN)*%
X180200000Y-61800000D03*
X190300000Y-70300000D03*
%TO.N,Net-(D48-DOUT)*%
X171300000Y-87200000D03*
X171300000Y-99900000D03*
%TO.N,Net-(D63-DOUT)*%
X144200000Y-78800000D03*
X143300000Y-89900000D03*
%TO.N,Net-(D62-DOUT)*%
X146900000Y-96800000D03*
X139900000Y-88200000D03*
%TO.N,Net-(D12-DOUT)*%
X191900000Y-103100000D03*
X191300000Y-90200000D03*
%TO.N,Net-(U10-PG)*%
X210200000Y-97300000D03*
X209800000Y-94000000D03*
%TO.N,CAP_MIS*%
X192400000Y-72900000D03*
X209155000Y-91096473D03*
%TO.N,FAULT_IN*%
X214225341Y-92279822D03*
X195800000Y-65000000D03*
%TO.N,SINK_EN*%
X215024981Y-92303910D03*
X199100000Y-55800000D03*
%TO.N,PLUG_EVENT*%
X210500000Y-85600000D03*
X196800000Y-65300000D03*
D16*
%TO.N,PG_USBC*%
X196596700Y-104401596D03*
X191600000Y-79700000D03*
D15*
%TO.N,Net-(D61-DOUT)*%
X143300000Y-97800000D03*
X154700000Y-98800000D03*
%TO.N,Net-(D60-DOUT)*%
X161300000Y-95100000D03*
X152700000Y-102200000D03*
%TO.N,Net-(D8-DOUT)*%
X172000000Y-55500000D03*
X183900000Y-60800000D03*
%TO.N,Net-(U13-A)*%
X172500000Y-45400000D03*
X206100000Y-76200000D03*
%TO.N,PG_BAT*%
X189200000Y-81400000D03*
X183900000Y-129900000D03*
%TD*%
%TO.N,Net-(D25-DOUT)*%
D17*
X118900000Y-64600000D02*
X123500000Y-60000000D01*
X118900000Y-72200000D02*
X118900000Y-64600000D01*
%TO.N,Net-(D24-DOUT)*%
X115969210Y-69930790D02*
X116800000Y-69100000D01*
X115969210Y-82010263D02*
X115969210Y-69930790D01*
%TO.N,Net-(D56-DOUT)*%
X152600000Y-73800000D02*
X153900000Y-75100000D01*
X143200000Y-73800000D02*
X152600000Y-73800000D01*
%TO.N,Net-(D55-DOUT)*%
X141500000Y-76500000D02*
X141500000Y-73300000D01*
X137100000Y-80900000D02*
X141500000Y-76500000D01*
X143400000Y-71400000D02*
X143400000Y-70100000D01*
X141500000Y-73300000D02*
X143400000Y-71400000D01*
%TO.N,Net-(D30-DOUT)*%
X171200000Y-62300000D02*
X175900000Y-67000000D01*
X162800000Y-62300000D02*
X171200000Y-62300000D01*
%TO.N,Net-(D29-DOUT)*%
X152000000Y-60700000D02*
X165100000Y-60700000D01*
X165100000Y-60700000D02*
X165600000Y-60200000D01*
%TO.N,DCDC_BAT_EN*%
X197800000Y-97500000D02*
X197800000Y-91600000D01*
X189200000Y-75251471D02*
X189200000Y-74400000D01*
X197000000Y-134496015D02*
X197000000Y-131700000D01*
X194600000Y-88400000D02*
X194600000Y-80651471D01*
X197000000Y-131700000D02*
X194000000Y-128700000D01*
X194000000Y-128700000D02*
X194000000Y-113000000D01*
X194600000Y-80651471D02*
X189200000Y-75251471D01*
X194000000Y-113000000D02*
X196300000Y-110700000D01*
X197871858Y-97571858D02*
X197800000Y-97500000D01*
X196300000Y-110700000D02*
X196300000Y-106200000D01*
X197871858Y-104628142D02*
X197871858Y-97571858D01*
X197800000Y-91600000D02*
X194600000Y-88400000D01*
X196300000Y-106200000D02*
X197871858Y-104628142D01*
%TO.N,Net-(D41-DOUT)*%
X125200000Y-90200000D02*
X125200000Y-76200000D01*
%TO.N,Net-(D40-DOUT)*%
X121900000Y-94900000D02*
X121900000Y-87900000D01*
X127700000Y-100700000D02*
X121900000Y-94900000D01*
%TO.N,+3.3V*%
D18*
X154989339Y-48250000D02*
X170350000Y-48250000D01*
X148900000Y-41800000D02*
X148900000Y-42160661D01*
X170350000Y-48250000D02*
X170400000Y-48300000D01*
D17*
X202800000Y-103900000D02*
X202800000Y-92800000D01*
X199400000Y-107300000D02*
X202800000Y-103900000D01*
D18*
X148900000Y-42160661D02*
X154989339Y-48250000D01*
%TO.N,Net-(D11-DOUT)*%
D17*
X190300000Y-79700000D02*
X190300000Y-87800000D01*
X190300000Y-87800000D02*
X194500000Y-92000000D01*
%TO.N,Net-(D10-DOUT)*%
X186500000Y-73400000D02*
X193900000Y-80800000D01*
X186500000Y-70000000D02*
X186500000Y-73400000D01*
%TO.N,Net-(D54-DOUT)*%
X135300000Y-77700000D02*
X135400000Y-77600000D01*
X135300000Y-90000000D02*
X135300000Y-77700000D01*
%TO.N,Net-(D31-DOUT)*%
X172200000Y-67900000D02*
X181600000Y-77300000D01*
X181600000Y-77300000D02*
X182400000Y-77300000D01*
%TO.N,+PD_PWR*%
X207600000Y-110400000D02*
X206000000Y-110400000D01*
X203600000Y-111400000D02*
X202600000Y-112400000D01*
X206000000Y-110400000D02*
X205000000Y-111400000D01*
X205000000Y-111400000D02*
X203600000Y-111400000D01*
%TO.N,Net-(D43-DOUT)*%
X142000000Y-60300000D02*
X142000000Y-60100000D01*
X132500000Y-69800000D02*
X142000000Y-60300000D01*
%TO.N,Net-(D42-DOUT)*%
X126900000Y-79200000D02*
X131700000Y-74400000D01*
X131700000Y-74400000D02*
X131700000Y-66300000D01*
%TO.N,Net-(D6-DOUT)*%
X151900000Y-50500000D02*
X153400000Y-49000000D01*
X153400000Y-49000000D02*
X165000000Y-49000000D01*
%TO.N,Net-(U1-ADCIN1)*%
X208800000Y-88000000D02*
X208800000Y-86912705D01*
X208800000Y-86912705D02*
X207483370Y-85596075D01*
%TO.N,Net-(U10-VCC)*%
X210712217Y-93838581D02*
X212577236Y-95703600D01*
X212577236Y-98677236D02*
X214000000Y-100100000D01*
X212577236Y-95703600D02*
X212577236Y-98677236D01*
%TO.N,Net-(D45-DOUT)*%
X164200000Y-70700000D02*
X164400000Y-70500000D01*
X152000000Y-70700000D02*
X164200000Y-70700000D01*
%TO.N,Net-(D44-DOUT)*%
X150000000Y-63400000D02*
X154000000Y-67400000D01*
X141400000Y-63400000D02*
X150000000Y-63400000D01*
%TO.N,Net-(D39-DOUT)*%
X133700000Y-109500000D02*
X124100000Y-99900000D01*
X134400000Y-109500000D02*
X133700000Y-109500000D01*
%TO.N,Net-(D16-DOUT)*%
X169700000Y-123200000D02*
X164700000Y-123200000D01*
X164700000Y-123200000D02*
X158300000Y-129600000D01*
%TO.N,Net-(D15-DOUT)*%
X169200000Y-126600000D02*
X169200000Y-126800000D01*
X178400000Y-117400000D02*
X169200000Y-126600000D01*
%TO.N,Net-(J1-CC1)*%
D19*
X222500000Y-87242700D02*
X222500000Y-87066480D01*
X214370519Y-86895767D02*
X213985708Y-86510956D01*
X222329287Y-86895767D02*
X214370519Y-86895767D01*
X222500000Y-87066480D02*
X222329287Y-86895767D01*
X213985708Y-86510956D02*
X213950786Y-86510956D01*
%TO.N,Net-(D21-DOUT)*%
D17*
X122900000Y-111700000D02*
X114200000Y-103000000D01*
X114200000Y-103000000D02*
X114200000Y-101900000D01*
%TO.N,Net-(D20-DOUT)*%
X126200000Y-119000000D02*
X119200000Y-112000000D01*
X130400000Y-119000000D02*
X126200000Y-119000000D01*
%TO.N,Net-(D46-DOUT)*%
X161200000Y-72300000D02*
X167300000Y-78400000D01*
X167300000Y-78400000D02*
X171900000Y-78400000D01*
%TO.N,REGN*%
X201900000Y-114675001D02*
X203567187Y-114675001D01*
X206642188Y-111107817D02*
X206750005Y-111000000D01*
X206642188Y-111600000D02*
X206642188Y-111107817D01*
X203567187Y-114675001D02*
X206642188Y-111600000D01*
%TO.N,Net-(D35-DOUT)*%
X164600000Y-116800000D02*
X164600000Y-117800000D01*
X173900000Y-107500000D02*
X164600000Y-116800000D01*
%TO.N,Net-(D34-DOUT)*%
X174800000Y-103000000D02*
X174800000Y-111000000D01*
X179600000Y-98200000D02*
X174800000Y-103000000D01*
%TO.N,Net-(D18-DOUT)*%
X149500000Y-126600000D02*
X136300000Y-126600000D01*
X136300000Y-126600000D02*
X136200000Y-126500000D01*
%TO.N,Net-(D17-DOUT)*%
X156300000Y-129500000D02*
X146800000Y-129500000D01*
X159600000Y-126200000D02*
X156300000Y-129500000D01*
%TO.N,Net-(D50-DOUT)*%
X157100000Y-110000000D02*
X152800000Y-110000000D01*
X163400000Y-103700000D02*
X157100000Y-110000000D01*
%TO.N,Net-(D49-DOUT)*%
X164700000Y-105600000D02*
X164700000Y-101400000D01*
X163400000Y-106900000D02*
X164700000Y-105600000D01*
X164700000Y-101400000D02*
X169600000Y-96500000D01*
%TO.N,Net-(U8-PGTH)*%
X185000000Y-124600000D02*
X184600000Y-124200000D01*
X194300000Y-107600000D02*
X194300000Y-107551471D01*
X197271858Y-104628142D02*
X197271858Y-104075000D01*
X184933486Y-129966514D02*
X185000000Y-129900000D01*
X184806034Y-129966514D02*
X184933486Y-129966514D01*
X192700000Y-109200000D02*
X194300000Y-107600000D01*
X194300000Y-107551471D02*
X194651471Y-107200000D01*
X194651471Y-107200000D02*
X194700000Y-107200000D01*
X184600000Y-122800000D02*
X192700000Y-114700000D01*
X185000000Y-129900000D02*
X185000000Y-124600000D01*
X192700000Y-114700000D02*
X192700000Y-109200000D01*
X194700000Y-107200000D02*
X197271858Y-104628142D01*
X184600000Y-124200000D02*
X184600000Y-122800000D01*
%TO.N,Net-(D33-DOUT)*%
X181400000Y-87300000D02*
X181400000Y-100900000D01*
X181400000Y-100900000D02*
X181500000Y-101000000D01*
%TO.N,Net-(D22-DOUT)*%
X117900000Y-96600000D02*
X112000000Y-90700000D01*
X117900000Y-102700000D02*
X117900000Y-96600000D01*
%TO.N,Net-(D47-DOUT)*%
X168300000Y-83100000D02*
X174600000Y-89400000D01*
X168300000Y-79000000D02*
X168300000Y-83100000D01*
%TO.N,Net-(U4-IO12)*%
X151900000Y-42200000D02*
X152952645Y-42200000D01*
X183800000Y-59900000D02*
X183848529Y-59900000D01*
X152952645Y-42200000D02*
X157752645Y-47000000D01*
X151700000Y-42000000D02*
X151900000Y-42200000D01*
X150674999Y-41077720D02*
X151597279Y-42000000D01*
X151597279Y-42000000D02*
X151700000Y-42000000D01*
X157752645Y-47000000D02*
X170900000Y-47000000D01*
X150674999Y-39503290D02*
X150674999Y-41077720D01*
X170900000Y-47000000D02*
X183800000Y-59900000D01*
X192100000Y-68151471D02*
X192100000Y-69200000D01*
X183848529Y-59900000D02*
X192100000Y-68151471D01*
%TO.N,SDA*%
X157600000Y-45900000D02*
X171800000Y-45900000D01*
X171800000Y-45900000D02*
X189000000Y-63100000D01*
X193300000Y-74148529D02*
X193300000Y-68300000D01*
X152800000Y-41100000D02*
X157600000Y-45900000D01*
X189000000Y-63100000D02*
X189000000Y-64000000D01*
X193300000Y-68300000D02*
X190650000Y-65650000D01*
X209757303Y-90605832D02*
X193300000Y-74148529D01*
X209757303Y-92223973D02*
X209757303Y-90605832D01*
X152400000Y-40500000D02*
X152800000Y-40900000D01*
X152800000Y-40900000D02*
X152800000Y-41100000D01*
X189000000Y-64000000D02*
X190650000Y-65650000D01*
%TO.N,SCL*%
X209600000Y-86265686D02*
X209100000Y-85765685D01*
X174200000Y-39600000D02*
X193200000Y-58600000D01*
X209100000Y-80400000D02*
X193500000Y-64800000D01*
X211082253Y-92272918D02*
X211082253Y-91055071D01*
X152424265Y-39675735D02*
X152500000Y-39600000D01*
X152500000Y-39600000D02*
X174200000Y-39600000D01*
X211082253Y-91055071D02*
X209600000Y-89572818D01*
X209600000Y-89572818D02*
X209600000Y-86265686D01*
X209100000Y-85765685D02*
X209100000Y-80400000D01*
%TO.N,Net-(D23-DOUT)*%
X115400000Y-82200000D02*
X113000000Y-79800000D01*
X115400000Y-92500000D02*
X115400000Y-82200000D01*
%TO.N,Net-(D7-DOUT)*%
X162400000Y-51600000D02*
X164500000Y-53700000D01*
X164500000Y-53700000D02*
X175300000Y-53700000D01*
%TO.N,Net-(D53-DOUT)*%
X138300000Y-98900000D02*
X132000000Y-92600000D01*
X132000000Y-92600000D02*
X132000000Y-88000000D01*
%TO.N,Net-(D52-DOUT)*%
X140700000Y-105100000D02*
X134500000Y-98900000D01*
X145500000Y-105100000D02*
X140700000Y-105100000D01*
%TO.N,Net-(D28-DOUT)*%
X142000000Y-53100000D02*
X150900000Y-53100000D01*
X150900000Y-53100000D02*
X154200000Y-56400000D01*
%TO.N,Net-(D27-DOUT)*%
X132500000Y-56800000D02*
X134800000Y-56800000D01*
X134800000Y-56800000D02*
X142700000Y-48900000D01*
%TO.N,Net-(D37-DOUT)*%
X154600000Y-116700000D02*
X141600000Y-116700000D01*
X141600000Y-116700000D02*
X140800000Y-117500000D01*
%TO.N,Net-(D36-DOUT)*%
X165000000Y-114100000D02*
X158500000Y-114100000D01*
X158500000Y-114100000D02*
X152500000Y-120100000D01*
%TO.N,Net-(D26-DOUT)*%
X124700000Y-63700000D02*
X124700000Y-60700000D01*
X124700000Y-60700000D02*
X132400000Y-53000000D01*
%TO.N,EN_BAT*%
X199000000Y-104400000D02*
X199000000Y-98800000D01*
X189400000Y-68300000D02*
X189400000Y-66300000D01*
X201400000Y-111600000D02*
X201400000Y-110748529D01*
X191200000Y-76300000D02*
X191200000Y-70100000D01*
X201000000Y-95700000D02*
X200100000Y-94800000D01*
X199000000Y-98800000D02*
X201000000Y-96800000D01*
X200100000Y-94800000D02*
X200100000Y-90700000D01*
X197700000Y-106551471D02*
X198200000Y-106051471D01*
X198200000Y-106051471D02*
X198200000Y-105200000D01*
X201400000Y-110748529D02*
X197700000Y-107048529D01*
X200100000Y-90700000D02*
X195600000Y-86200000D01*
X198200000Y-105200000D02*
X199000000Y-104400000D01*
X195600000Y-86200000D02*
X195600000Y-80700000D01*
X195600000Y-80700000D02*
X191200000Y-76300000D01*
X197700000Y-107048529D02*
X197700000Y-106551471D01*
X201000000Y-96800000D02*
X201000000Y-95700000D01*
X191200000Y-70100000D02*
X189400000Y-68300000D01*
%TO.N,Net-(D64-DOUT)*%
X146100000Y-83600000D02*
X149600000Y-87100000D01*
X149600000Y-87100000D02*
X154200000Y-87100000D01*
%TO.N,Net-(D59-DOUT)*%
X163400000Y-87300000D02*
X163400000Y-97800000D01*
X163400000Y-97800000D02*
X162500000Y-98700000D01*
%TO.N,Net-(D58-DOUT)*%
X159500000Y-80600000D02*
X159500000Y-82200000D01*
X159500000Y-82200000D02*
X166700000Y-89400000D01*
%TO.N,Net-(D32-DOUT)*%
X184400000Y-82400000D02*
X184400000Y-89300000D01*
X178600000Y-76600000D02*
X184400000Y-82400000D01*
%TO.N,Net-(D14-DOUT)*%
X185200000Y-109500000D02*
X185200000Y-114900000D01*
X185200000Y-114900000D02*
X178900000Y-121200000D01*
%TO.N,Net-(D13-DOUT)*%
X189500000Y-110200000D02*
X186800000Y-112900000D01*
X189500000Y-100200000D02*
X189500000Y-110200000D01*
%TO.N,Net-(D51-DOUT)*%
X154600000Y-106700000D02*
X142000000Y-106700000D01*
%TO.N,Net-(D19-DOUT)*%
X130500000Y-124100000D02*
X126700000Y-120300000D01*
X139200000Y-124100000D02*
X130500000Y-124100000D01*
%TO.N,Net-(D57-DOUT)*%
X152100000Y-78600000D02*
X162200000Y-78600000D01*
X162200000Y-78600000D02*
X163200000Y-79600000D01*
%TO.N,Net-(J1-CC2)*%
D19*
X213435000Y-86800000D02*
X213336281Y-86800000D01*
X214549100Y-87914100D02*
X213435000Y-86800000D01*
X214549100Y-88753929D02*
X214549100Y-87914100D01*
X222274431Y-90350839D02*
X222025270Y-90600000D01*
X216395171Y-90600000D02*
X214549100Y-88753929D01*
X222025270Y-90600000D02*
X216395171Y-90600000D01*
X225000000Y-90500000D02*
X224349795Y-90500000D01*
X224200634Y-90350839D02*
X222274431Y-90350839D01*
X213336281Y-86800000D02*
X213246281Y-86890000D01*
X224349795Y-90500000D02*
X224200634Y-90350839D01*
%TO.N,Net-(D38-DOUT)*%
D17*
X130650000Y-110650000D02*
X135000000Y-115000000D01*
X135000000Y-115000000D02*
X143600000Y-115000000D01*
%TO.N,D+*%
X216085472Y-83902340D02*
X215867684Y-84120129D01*
X195313603Y-62825000D02*
X214939956Y-82451354D01*
X217475000Y-85400000D02*
X217674999Y-85200001D01*
X215321796Y-83138664D02*
X215104008Y-83356453D01*
X195313603Y-62825000D02*
X195100000Y-62825000D01*
X217674999Y-85200001D02*
X217674999Y-85186396D01*
X214722168Y-82974614D02*
X214939957Y-82756826D01*
X214798536Y-83356452D02*
X214722168Y-83280084D01*
X217674999Y-85186396D02*
X216390944Y-83902341D01*
X215562212Y-84120128D02*
X215485844Y-84043760D01*
X215485844Y-83738290D02*
X215703633Y-83520502D01*
X215703632Y-83215030D02*
X215627268Y-83138665D01*
X215867684Y-84120129D02*
G75*
G02*
X215562164Y-84120177I-152784J152729D01*
G01*
X215485844Y-84043760D02*
G75*
G02*
X215485819Y-83738265I152756J152760D01*
G01*
X216390944Y-83902341D02*
G75*
G03*
X216085465Y-83902332I-152744J-152759D01*
G01*
X215627268Y-83138665D02*
G75*
G03*
X215321765Y-83138632I-152768J-152735D01*
G01*
X214722168Y-83280084D02*
G75*
G02*
X214722119Y-82974565I152732J152784D01*
G01*
X214939957Y-82756826D02*
G75*
G03*
X214939947Y-82451363I-152757J152726D01*
G01*
X215703633Y-83520502D02*
G75*
G03*
X215703599Y-83215064I-152733J152702D01*
G01*
X215104008Y-83356453D02*
G75*
G02*
X214798563Y-83356425I-152708J152753D01*
G01*
%TO.N,D-*%
X218125001Y-85200001D02*
X218325000Y-85400000D01*
X218125001Y-85000001D02*
X218125001Y-85200001D01*
X195100000Y-61975000D02*
X218125001Y-85000001D01*
%TO.N,Net-(D10-DIN)*%
X180200000Y-61800000D02*
X188700000Y-70300000D01*
X188700000Y-70300000D02*
X190300000Y-70300000D01*
%TO.N,Net-(D48-DOUT)*%
X171300000Y-87200000D02*
X171300000Y-99900000D01*
%TO.N,Net-(D63-DOUT)*%
X144200000Y-89000000D02*
X144200000Y-78800000D01*
X143300000Y-89900000D02*
X144200000Y-89000000D01*
%TO.N,Net-(D62-DOUT)*%
X146900000Y-96800000D02*
X139900000Y-89800000D01*
X139900000Y-89800000D02*
X139900000Y-88200000D01*
%TO.N,Net-(D12-DOUT)*%
X191300000Y-90200000D02*
X191300000Y-102500000D01*
X191300000Y-102500000D02*
X191900000Y-103100000D01*
%TO.N,Net-(U10-PG)*%
X210200000Y-97300000D02*
X210200000Y-94400000D01*
X210200000Y-94400000D02*
X209800000Y-94000000D01*
%TO.N,CAP_MIS*%
X192400000Y-74341473D02*
X192400000Y-72900000D01*
X209155000Y-91096473D02*
X192400000Y-74341473D01*
%TO.N,FAULT_IN*%
X195800000Y-65148529D02*
X195800000Y-65000000D01*
X214225341Y-92279822D02*
X212055000Y-90109481D01*
X209500000Y-78521986D02*
X196878014Y-65900000D01*
X196878014Y-65900000D02*
X196551471Y-65900000D01*
X212055000Y-90109481D02*
X212055000Y-88155000D01*
X209500000Y-85600000D02*
X209500000Y-78521986D01*
X212055000Y-88155000D02*
X209500000Y-85600000D01*
X196551471Y-65900000D02*
X195800000Y-65148529D01*
%TO.N,PLUG_EVENT*%
D19*
X210500000Y-79000000D02*
X196800000Y-65300000D01*
X210500000Y-85600000D02*
X210500000Y-79000000D01*
%TO.N,PG_USBC*%
D20*
X195700000Y-91100000D02*
X192500000Y-87900000D01*
X192500000Y-87900000D02*
X192500000Y-81300000D01*
X195700000Y-92400000D02*
X195700000Y-91100000D01*
X192500000Y-81300000D02*
X191600000Y-80400000D01*
X196596700Y-104217912D02*
X195650000Y-103271212D01*
X196596700Y-104401596D02*
X196596700Y-104217912D01*
X195650000Y-103271212D02*
X195650000Y-92450000D01*
X191600000Y-80400000D02*
X191600000Y-79700000D01*
X195650000Y-92450000D02*
X195700000Y-92400000D01*
%TO.N,Net-(D61-DOUT)*%
D17*
X144300000Y-98800000D02*
X143300000Y-97800000D01*
X154700000Y-98800000D02*
X144300000Y-98800000D01*
%TO.N,Net-(D60-DOUT)*%
X154200000Y-102200000D02*
X152700000Y-102200000D01*
X161300000Y-95100000D02*
X154200000Y-102200000D01*
%TO.N,Net-(D8-DOUT)*%
X172000000Y-55500000D02*
X177300000Y-60800000D01*
X177300000Y-60800000D02*
X183900000Y-60800000D01*
%TO.N,Net-(U13-A)*%
X175300000Y-45400000D02*
X206100000Y-76200000D01*
X172500000Y-45400000D02*
X175300000Y-45400000D01*
%TO.N,PG_BAT*%
X186200000Y-120634314D02*
X186200000Y-84400000D01*
X186200000Y-84400000D02*
X189200000Y-81400000D01*
X183900000Y-129900000D02*
X183900000Y-122934314D01*
X183900000Y-122934314D02*
X186200000Y-120634314D01*
%TD*%
%TA.AperFunction,Conductor*%
%TO.N,+Battery_OUT*%
G36*
X195842409Y-115753705D02*
G01*
X195859661Y-115767475D01*
X195892686Y-115800500D01*
X195892688Y-115800501D01*
X195892690Y-115800503D01*
X196006810Y-115866390D01*
X196006808Y-115866390D01*
X196006812Y-115866391D01*
X196006814Y-115866392D01*
X196134108Y-115900500D01*
X196134110Y-115900500D01*
X196265890Y-115900500D01*
X196265892Y-115900500D01*
X196393186Y-115866392D01*
X196393188Y-115866390D01*
X196393190Y-115866390D01*
X196507310Y-115800503D01*
X196507310Y-115800501D01*
X196507314Y-115800500D01*
X196531500Y-115776313D01*
X196586012Y-115748536D01*
X196607304Y-115747488D01*
X197356157Y-115791538D01*
X197399839Y-115804630D01*
X197506810Y-115866390D01*
X197506808Y-115866390D01*
X197506812Y-115866391D01*
X197506814Y-115866392D01*
X197634108Y-115900500D01*
X197634110Y-115900500D01*
X197640376Y-115902179D01*
X197640086Y-115903258D01*
X197674006Y-115916004D01*
X198380943Y-116387295D01*
X198411540Y-116419783D01*
X199100000Y-117600000D01*
X203600000Y-119000000D01*
X203600001Y-118999999D01*
X203600002Y-119000000D01*
X203619950Y-118998100D01*
X203679797Y-118992400D01*
X203714805Y-118995328D01*
X203723878Y-118997759D01*
X203734105Y-119000499D01*
X203734107Y-119000500D01*
X203734108Y-119000500D01*
X203865890Y-119000500D01*
X203865892Y-119000500D01*
X203993186Y-118966392D01*
X203993186Y-118966391D01*
X203999455Y-118964712D01*
X203999555Y-118965086D01*
X204019998Y-118960000D01*
X207790381Y-118600916D01*
X207809609Y-118600960D01*
X209789813Y-118798981D01*
X209809762Y-118803082D01*
X211696490Y-119398891D01*
X211703426Y-119401370D01*
X212153001Y-119581200D01*
X212200007Y-119620366D01*
X212212277Y-119649108D01*
X212287807Y-119951230D01*
X212283578Y-120012269D01*
X212267817Y-120038619D01*
X211805092Y-120593888D01*
X211794000Y-120605216D01*
X204899995Y-126600003D01*
X198886742Y-132233941D01*
X198831350Y-132259929D01*
X198825295Y-132260499D01*
X198250134Y-132296832D01*
X198190867Y-132281631D01*
X198167839Y-132261407D01*
X198167082Y-132260499D01*
X196714496Y-130517395D01*
X196694507Y-130478031D01*
X196609802Y-130139208D01*
X196614031Y-130078170D01*
X196620434Y-130065141D01*
X198300000Y-127200000D01*
X195815353Y-120012269D01*
X195500000Y-119099999D01*
X194807896Y-117715792D01*
X194798050Y-117682451D01*
X194704657Y-116841914D01*
X194717022Y-116781991D01*
X194726994Y-116767606D01*
X195194240Y-116206912D01*
X195206914Y-116194238D01*
X195726286Y-115761428D01*
X195783091Y-115738701D01*
X195842409Y-115753705D01*
G37*
%TD.AperFunction*%
%TD*%
M02*
