M48
; DRILL file KiCad 10.0.0 date 2026-04-07T16:30:06
; FORMAT={-:-/ absolute / metric / decimal}
; #@! TF.CreationDate,2026-04-07T16:30:06+02:00
; #@! TF.GenerationSoftware,Kicad,Pcbnew,10.0.0
; #@! TF.FileFunction,Plated,1,4,PTH
FMAT,2
METRIC
; #@! TA.AperFunction,Plated,PTH,ComponentDrill
T1C0.200
; #@! TA.AperFunction,Plated,PTH,ViaDrill
T2C0.300
; #@! TA.AperFunction,Plated,PTH,ComponentDrill
T3C0.600
; #@! TA.AperFunction,Plated,PTH,ComponentDrill
T4C0.950
%
G90
G05
T1
X200.796Y-64.06
X201.175Y-63.145
X201.332Y-65.353
X201.711Y-64.439
X202.09Y-63.524
X202.247Y-65.732
X202.469Y-62.61
X202.626Y-64.818
X203.004Y-63.903
X203.383Y-62.988
X203.54Y-65.196
X203.919Y-64.282
X210.395Y-89.59
X211.505Y-88.515
X211.505Y-89.59
X211.505Y-90.665
X212.615Y-89.59
X214.03Y-88.515
X214.03Y-89.59
X214.03Y-90.665
T2
X88.4Y-76.2
X89.4Y-96.4
X90.3Y-66.0
X90.5Y-86.1
X91.4Y-103.4
X93.3Y-119.9
X94.5Y-112.6
X95.0Y-90.8
X95.2Y-96.7
X95.7Y-69.5
X96.6Y-77.6
X99.6Y-56.3
X99.6Y-87.3
X100.1Y-64.5
X101.1Y-109.1
X102.5Y-92.4
X102.5Y-100.9
X103.6Y-118.9
X103.7Y-72.8
X104.1Y-47.7
X105.1Y-83.0
X105.1Y-94.8
X106.2Y-63.3
X106.5Y-57.7
X106.7Y-130.6
X107.9Y-39.0
X109.7Y-74.1
X110.0Y-109.7
X111.4Y-48.6
X111.9Y-61.3
X112.0Y-90.7
X113.0Y-79.8
X113.5Y-117.0
X113.7Y-35.7
X114.2Y-101.9
X114.4Y-135.8
X114.8Y-86.6
X114.9Y-126.4
X115.4Y-92.5
X115.8Y-96.2
X115.969Y-82.01
X116.2Y-89.2
X116.3Y-53.1
X116.3Y-98.1
X116.8Y-69.1
X117.0Y-42.7
X117.5Y-75.3
X117.8Y-79.2
X117.9Y-102.7
X118.2Y-59.1
X118.9Y-72.2
X119.1Y-105.6
X119.2Y-112.0
X121.9Y-69.7
X121.9Y-87.9
X121.9Y-107.8
X122.4Y-66.2
X122.9Y-111.7
X123.5Y-60.0
X124.1Y-99.9
X124.3Y-52.8
X124.7Y-63.7
X125.1Y-114.4
X125.2Y-44.1
X125.2Y-76.2
X125.2Y-90.2
X125.6Y-29.4
X125.8Y-93.7
X126.2Y-82.6
X126.4Y-86.5
X126.7Y-120.3
X126.8Y-141.5
X126.9Y-79.2
X127.1Y-35.2
X127.1Y-75.5
X127.3Y-132.3
X127.6Y-96.7
X127.7Y-100.7
X128.3Y-60.4
X128.5Y-115.8
X129.2Y-59.1
X129.6Y-103.9
X130.4Y-119.0
X130.4Y-134.4
X130.5Y-72.7
X130.65Y-110.65
X131.7Y-66.3
X132.0Y-88.0
X132.4Y-42.0
X132.4Y-53.0
X132.5Y-56.8
X132.5Y-69.8
X133.0Y-106.5
X133.0Y-121.1
X134.3Y-149.6
X134.4Y-47.4
X134.4Y-109.5
X134.5Y-98.9
X135.3Y-90.0
X135.3Y-93.4
X135.4Y-77.6
X135.9Y-83.9
X136.2Y-126.5
X136.3Y-67.8
X136.5Y-85.8
X136.576Y-54.176
X136.7Y-64.0
X136.9Y-121.7
X137.1Y-80.9
X137.1Y-111.9
X137.7Y-95.4
X138.0Y-76.7
X138.3Y-98.9
X138.5Y-141.4
X138.8Y-53.7
X139.2Y-124.1
X139.9Y-76.3
X139.9Y-88.2
X140.1Y-40.9
X140.4Y-101.7
X140.8Y-117.5
X141.2Y-112.7
X141.4Y-63.4
X142.0Y-53.1
X142.0Y-60.1
X142.0Y-106.7
X142.5Y-125.2
X142.7Y-48.9
X143.0Y-102.2
X143.2Y-73.8
X143.3Y-89.9
X143.3Y-97.8
X143.4Y-70.1
X143.6Y-84.9
X143.6Y-115.0
X143.724Y-92.776
X144.2Y-21.6
X144.2Y-78.8
X144.8Y-86.2
X145.5Y-52.5
X145.5Y-105.1
X145.8Y-93.7
X146.1Y-83.6
X146.1Y-124.7
X146.3Y-62.0
X146.5Y-151.7
X146.8Y-129.5
X146.9Y-96.8
X147.4Y-118.5
X147.7Y-69.8
X147.7Y-71.8
X148.4Y-105.9
X148.5Y-60.8
X148.6Y-81.1
X148.7Y-45.6
X148.7Y-50.8
X148.7Y-78.6
X148.9Y-41.8
X149.0Y-90.5
X149.3Y-99.4
X149.5Y-126.6
X150.1Y-140.0
X150.2Y-100.1
X150.5Y-21.6
X150.5Y-108.1
X150.675Y-39.503
X151.5Y-37.062
X151.6Y-115.6
X151.9Y-44.1
X151.9Y-50.5
X152.0Y-60.7
X152.0Y-70.7
X152.1Y-78.6
X152.4Y-40.5
X152.424Y-39.676
X152.5Y-120.1
X152.5Y-127.1
X152.7Y-102.2
X152.8Y-110.0
X153.9Y-75.1
X154.0Y-67.4
X154.2Y-56.4
X154.2Y-87.1
X154.6Y-106.7
X154.6Y-116.7
X154.7Y-98.8
X155.4Y-51.9
X155.4Y-61.8
X155.5Y-71.7
X155.5Y-79.9
X155.6Y-91.8
X155.9Y-39.0
X156.2Y-125.7
X156.297Y-88.601
X156.9Y-76.8
X156.953Y-89.625
X157.075Y-88.418
X157.1Y-136.7
X157.5Y-92.3
X157.6Y-85.5
X157.8Y-22.3
X157.9Y-106.7
X158.1Y-96.5
X158.2Y-116.5
X158.25Y-68.7
X158.3Y-129.6
X158.8Y-50.8
X159.2Y-99.5
X159.3Y-61.7
X159.5Y-80.6
X159.6Y-126.2
X159.9Y-104.5
X160.9Y-41.6
X161.2Y-72.3
X161.3Y-95.1
X162.1Y-90.9
X162.1Y-116.8
X162.4Y-51.6
X162.5Y-98.7
X162.8Y-62.3
X163.2Y-79.6
X163.3Y-82.6
X163.4Y-87.3
X163.4Y-103.7
X163.4Y-106.9
X163.6Y-125.2
X164.4Y-70.5
X164.6Y-117.8
X164.8Y-142.8
X165.0Y-49.0
X165.0Y-114.1
X165.3Y-82.9
X165.4Y-75.2
X165.4Y-92.6
X165.6Y-60.2
X166.1Y-64.9
X166.4Y-149.4
X166.7Y-89.4
X166.8Y-73.7
X166.8Y-122.6
X167.0Y-52.7
X167.8Y-111.6
X168.3Y-79.0
X168.3Y-100.7
X168.3Y-102.5
X168.9Y-54.3
X169.1Y-66.0
X169.2Y-126.8
X169.6Y-96.5
X169.7Y-123.2
X170.1Y-90.8
X170.4Y-48.3
X170.4Y-82.7
X170.4Y-93.5
X170.6Y-109.0
X170.9Y-84.1
X171.3Y-87.2
X171.3Y-99.9
X171.622Y-46.571
X171.9Y-78.4
X172.0Y-55.5
X172.2Y-67.9
X172.5Y-45.4
X172.6Y-135.3
X172.8Y-121.3
X173.6Y-71.4
X173.9Y-107.5
X174.6Y-89.4
X174.7Y-140.5
X174.8Y-111.0
X175.3Y-53.7
X175.7Y-56.5
X175.7Y-118.2
X175.9Y-67.0
X176.5Y-145.6
X176.6Y-105.0
X176.9Y-73.9
X177.4Y-102.6
X177.8Y-59.2
X178.2Y-135.2
X178.4Y-117.4
X178.6Y-76.6
X178.9Y-27.0
X178.9Y-121.2
X179.3Y-37.3
X179.3Y-127.9
X179.6Y-98.2
X179.8Y-128.4
X180.1Y-81.5
X180.2Y-61.8
X180.2Y-90.9
X180.7Y-94.8
X180.9Y-114.9
X181.0Y-83.9
X181.2Y-132.6
X181.4Y-87.3
X181.5Y-101.0
X181.6Y-133.1
X181.8Y-65.3
X182.2Y-111.7
X182.4Y-77.3
X183.6Y-30.6
X183.9Y-60.8
X183.9Y-129.9
X184.4Y-67.4
X184.4Y-89.3
X184.6Y-124.2
X184.806Y-129.967
X185.2Y-109.5
X185.5Y-144.1
X186.4Y-42.3
X186.466Y-74.214
X186.5Y-70.0
X186.8Y-112.9
X187.0Y-106.5
X187.7Y-102.6
X187.9Y-139.3
X188.0Y-130.0
X188.5Y-128.1
X188.6Y-129.5
X188.8Y-138.6
X189.2Y-74.4
X189.2Y-81.4
X189.2Y-127.6
X189.4Y-66.3
X189.5Y-100.2
X189.8Y-137.7
X190.0Y-75.2
X190.0Y-93.1
X190.3Y-70.3
X190.3Y-79.7
X190.4Y-96.8
X190.5Y-137.1
X190.65Y-65.65
X191.0Y-136.3
X191.2Y-84.2
X191.2Y-86.6
X191.3Y-90.2
X191.5Y-36.4
X191.5Y-68.4
X191.5Y-85.1
X191.6Y-79.7
X191.7Y-137.1
X191.9Y-103.1
X192.1Y-69.2
X192.4Y-72.9
X193.2Y-58.6
X193.5Y-64.8
X193.9Y-80.8
X194.0Y-140.1
X194.1Y-130.1
X194.5Y-92.0
X194.7Y-130.7
X194.9Y-107.8
X194.933Y-134.753
X195.1Y-61.975
X195.1Y-62.825
X195.1Y-117.2
X195.8Y-65.0
X196.1Y-113.1
X196.2Y-95.8
X196.2Y-115.4
X196.4Y-118.5
X196.411Y-100.588
X196.597Y-104.402
X196.8Y-65.3
X196.9Y-116.1
X197.0Y-134.496
X197.1Y-95.9
X197.2Y-107.8
X197.272Y-104.075
X197.3Y-113.0
X197.3Y-119.1
X197.5Y-43.2
X197.7Y-115.4
X197.9Y-118.5
X198.3Y-106.8
X198.6Y-113.7
X198.6Y-114.5
X198.7Y-118.1
X198.8Y-96.8
X198.9Y-105.5
X199.1Y-55.8
X199.4Y-107.3
X199.4Y-127.0
X199.8Y-96.9
X200.1Y-127.4
X201.0Y-98.6
X201.0Y-128.2
X201.4Y-111.6
X201.8Y-98.7
X201.8Y-128.8
X201.9Y-114.675
X202.2Y-106.4
X202.3Y-105.7
X202.4Y-111.1
X202.6Y-112.4
X202.8Y-92.8
X203.1Y-87.0
X203.5Y-109.1
X203.5Y-109.8
X203.5Y-117.0
X203.8Y-118.5
X204.5Y-87.8
X204.6Y-112.2
X205.1Y-85.1
X205.1Y-92.3
X205.6Y-84.5
X206.1Y-76.2
X206.1Y-106.6
X206.75Y-111.0
X206.9Y-90.6
X206.9Y-106.6
X207.0Y-83.5
X207.483Y-85.596
X207.6Y-110.4
X207.6Y-115.7
X208.0Y-95.4
X208.0Y-115.2
X208.163Y-96.763
X208.8Y-88.0
X208.8Y-119.4
X209.155Y-91.096
X209.2Y-120.1
X209.757Y-92.224
X209.8Y-94.0
X209.8Y-119.2
X209.8Y-120.6
X210.2Y-97.3
X210.2Y-119.9
X210.5Y-85.6
X210.712Y-93.839
X211.0Y-120.0
X211.082Y-92.273
X211.142Y-95.555
X211.257Y-97.319
X211.474Y-99.094
X211.8Y-120.0
X211.9Y-92.6
X211.977Y-97.398
X212.278Y-87.235
X213.1Y-92.8
X213.246Y-86.89
X213.3Y-94.2
X213.9Y-109.2
X213.9Y-110.0
X213.951Y-86.511
X214.0Y-100.1
X214.225Y-92.28
X214.274Y-98.8
X215.025Y-92.304
X216.0Y-88.0
X216.026Y-88.733
X216.4Y-102.0
X216.531Y-88.356
X216.579Y-89.048
X216.8Y-96.0
X216.8Y-96.6
X217.3Y-101.0
X217.475Y-85.4
X218.325Y-85.4
X220.9Y-88.7
X222.0Y-84.5
X222.343Y-89.099
X222.5Y-87.243
X222.7Y-88.381
X225.0Y-90.5
T4
X135.4Y-28.6
X142.35Y-28.6
X149.3Y-28.6
X156.25Y-28.6
X163.2Y-28.6
X170.15Y-28.6
T3
X224.86Y-84.38G85X223.76Y-84.38
G05
X224.86Y-93.02G85X223.76Y-93.02
G05
X228.91Y-84.38G85X228.11Y-84.38
G05
X228.91Y-93.02G85X228.11Y-93.02
G05
M30
